<svg xmlns="http://www.w3.org/2000/svg" viewBox="0 0 148.08 148.08"><defs><style>.cls-1{fill:#fff;}</style></defs><g id="Layer_2" data-name="Layer 2"><g id="Layer_1-2" data-name="Layer 1"><rect width="148.08" height="148.08" rx="10.68"/><path class="cls-1" d="M121.94,47.7H88.41V38.12h33.53Zm8.26,47.89c-2.11,6.22-9.71,14.37-24.43,14.37s-26.65-8.28-26.65-27.18c0-18.73,11.14-28.35,26.18-28.35,14.76,0,23.78,8.53,25.75,21.2a64.3,64.3,0,0,1,.45,10.25H93.05c.63,15.38,16.69,15.86,22,9.71ZM93.39,76.43h23.78c-.5-7.4-5.44-10.62-11.86-10.62C98.29,65.81,94.4,69.48,93.39,76.43ZM47.53,109.91h-31V38.22H49.87c26.22.39,26.72,26.07,13,33.08C79.47,77.33,80,109.91,47.53,109.91Zm-16.6-43H48.1c12,0,13.92-14.37-1.5-14.37H30.93ZM47.17,81.22H30.93V95.67h16C61.57,95.67,60.67,81.22,47.17,81.22Z"/></g></g></svg>