<svg width="72" height="70" viewBox="0 0 72 70" fill="none" xmlns="http://www.w3.org/2000/svg">
<path d="M12.7137 0H59.0812C66.1111 0 71.7949 5.68376 71.7949 12.7137V57.2863C71.7949 64.3162 66.1111 70 59.0812 70H12.7137C5.68376 70 0 64.3162 0 57.2863V12.7137C0 5.68376 5.68376 0 12.7137 0Z" fill="#330000"/>
<path d="M34.701 41.8804H23.5728L21.2993 48.9103C21.2394 49.1795 21.0001 49.359 20.7309 49.3291H15.1069C14.7779 49.3291 14.6881 49.1496 14.7779 48.7906L24.4104 21.0598C24.5001 20.7607 24.5899 20.4316 24.7095 20.0727C24.8292 19.4445 24.889 18.7863 24.889 18.1282C24.8591 17.9786 24.9787 17.8291 25.1283 17.7992H25.2181H32.8762C33.1155 17.7992 33.2352 17.8889 33.2651 18.0385L44.1839 48.8504C44.2736 49.1795 44.1839 49.3291 43.8847 49.3291H37.6326C37.4232 49.359 37.2138 49.2094 37.154 49L34.701 41.8804ZM25.3078 35.8077H32.9061C32.7266 35.1795 32.4873 34.4316 32.2181 33.6539C31.9488 32.8462 31.6796 31.9786 31.4104 31.0812C31.1112 30.1539 30.842 29.2564 30.5428 28.3291C30.2437 27.4017 29.9745 26.5342 29.7352 25.6667C29.4958 24.8291 29.2864 24.0513 29.077 23.3333H29.0172C28.748 24.6197 28.4189 25.906 28.0001 27.1923C27.5514 28.6282 27.1027 30.1239 26.624 31.6197C26.2052 33.1453 25.7565 34.5513 25.3078 35.8077Z" fill="#FF9A00"/>
<path d="M50.8548 23.0342C49.8676 23.0641 48.9104 22.6752 48.1924 21.9872C47.5044 21.2393 47.1454 20.2522 47.1753 19.2351C47.1454 18.218 47.5343 17.2607 48.2522 16.5727C48.9702 15.8846 49.9274 15.5257 50.9146 15.5257C52.0813 15.5257 52.9787 15.8846 53.6369 16.5727C54.295 17.2906 54.6539 18.2479 54.624 19.2351C54.6539 20.2522 54.295 21.2393 53.577 21.9872C52.889 22.7052 51.8719 23.094 50.8548 23.0342ZM47.5044 49V25.9658C47.5044 25.6667 47.624 25.547 47.8933 25.547H53.8163C54.0856 25.547 54.2052 25.6966 54.2052 25.9658V49C54.2052 49.3291 54.0856 49.4787 53.8163 49.4787H47.9531C47.6539 49.4787 47.5044 49.2992 47.5044 49Z" fill="#FF9A00"/>
</svg>
