<svg xmlns="http://www.w3.org/2000/svg" viewBox="0 0 148.08 148.07"><defs><style>.cls-1{fill:#0a66c2;}.cls-2{fill:#fff;}</style></defs><g id="Layer_2" data-name="Layer 2"><g id="Layer_1-2" data-name="Layer 1"><path class="cls-1" d="M137.11,0H10.93A10.85,10.85,0,0,0,0,10.68V137.39a10.86,10.86,0,0,0,10.93,10.68H137.11a10.88,10.88,0,0,0,11-10.68V10.67A10.87,10.87,0,0,0,137.11,0ZM43.92,126.17H22V55.51h22Zm-2-84.07a12.69,12.69,0,0,1-9,3.75h0a12.8,12.8,0,1,1,9-3.75Zm84.24,84.07H104.23V91.81c0-8.2-.14-18.74-11.41-18.74-11.43,0-13.18,8.92-13.18,18.14v35H57.7V55.51H78.77v9.65h.29A23.1,23.1,0,0,1,99.84,53.75c22.24,0,26.34,14.63,26.34,33.66Z"/><path class="cls-2" d="M126.18,87.41v38.76H104.23V91.81c0-8.2-.14-18.74-11.41-18.74-11.43,0-13.18,8.92-13.18,18.14v35H57.7V55.51H78.77v9.65h.29A23.1,23.1,0,0,1,99.84,53.75C122.08,53.75,126.18,68.38,126.18,87.41Z"/><path class="cls-2" d="M45.68,33.11A12.8,12.8,0,0,1,33,45.85h0A12.74,12.74,0,1,1,45.68,33.11Z"/><rect class="cls-2" x="21.95" y="55.51" width="21.97" height="70.66"/></g></g></svg>