<svg width="542" height="27" viewBox="0 0 542 27" fill="none" xmlns="http://www.w3.org/2000/svg">
<path d="M0.96 26C0.72 26 0.516 25.928 0.348 25.784C0.204 25.616 0.132 25.412 0.132 25.172V1.664C0.132 1.4 0.204 1.196 0.348 1.052C0.516 0.883999 0.72 0.799998 0.96 0.799998H2.76C3.144 0.799998 3.456 0.991999 3.696 1.376L11.292 15.92L18.96 1.376C19.008 1.232 19.104 1.1 19.248 0.979998C19.416 0.859998 19.62 0.799998 19.86 0.799998H21.624C21.888 0.799998 22.092 0.883999 22.236 1.052C22.404 1.196 22.488 1.4 22.488 1.664V25.172C22.488 25.412 22.404 25.616 22.236 25.784C22.068 25.928 21.864 26 21.624 26H19.86C19.62 26 19.416 25.928 19.248 25.784C19.104 25.616 19.032 25.412 19.032 25.172V7.46L13.02 19.196C12.78 19.7 12.396 19.952 11.868 19.952H10.752C10.224 19.952 9.84 19.7 9.6 19.196L3.552 7.46V25.172C3.552 25.412 3.468 25.616 3.3 25.784C3.156 25.928 2.964 26 2.724 26H0.96ZM34.222 26C34.03 26 33.862 25.928 33.718 25.784C33.574 25.64 33.502 25.472 33.502 25.28C33.502 25.088 33.514 24.956 33.538 24.884L42.466 1.592C42.658 1.064 43.042 0.799998 43.618 0.799998H46.066C46.642 0.799998 47.026 1.064 47.218 1.592L56.11 24.884L56.182 25.28C56.182 25.472 56.11 25.64 55.966 25.784C55.822 25.928 55.654 26 55.462 26H53.626C53.362 26 53.158 25.94 53.014 25.82C52.87 25.676 52.774 25.532 52.726 25.388L50.746 20.276H38.938L36.958 25.388C36.91 25.532 36.802 25.676 36.634 25.82C36.49 25.94 36.298 26 36.058 26H34.222ZM49.702 17.18L44.842 4.4L39.982 17.18H49.702ZM68.0592 26C67.8192 26 67.6152 25.928 67.4472 25.784C67.3032 25.616 67.2312 25.412 67.2312 25.172V1.664C67.2312 1.4 67.3032 1.196 67.4472 1.052C67.6152 0.883999 67.8192 0.799998 68.0592 0.799998H76.8432C79.6032 0.799998 81.7632 1.448 83.3232 2.744C84.8832 4.04 85.6632 5.912 85.6632 8.36C85.6632 10.184 85.2072 11.684 84.2952 12.86C83.4072 14.036 82.1472 14.852 80.5152 15.308L86.0592 24.884C86.1312 25.028 86.1672 25.16 86.1672 25.28C86.1672 25.472 86.0832 25.64 85.9152 25.784C85.7712 25.928 85.6032 26 85.4112 26H83.6832C83.3232 26 83.0352 25.916 82.8192 25.748C82.6272 25.58 82.4472 25.34 82.2792 25.028L77.0592 15.884H70.7592V25.172C70.7592 25.412 70.6752 25.616 70.5072 25.784C70.3392 25.928 70.1352 26 69.8952 26H68.0592ZM76.6992 12.824C80.2752 12.824 82.0632 11.324 82.0632 8.324C82.0632 5.324 80.2752 3.824 76.6992 3.824H70.7592V12.824H76.6992ZM107.058 26.36C103.842 26.36 101.394 25.496 99.7139 23.768C98.0579 22.04 97.1699 19.652 97.0499 16.604C97.0259 15.956 97.0139 14.9 97.0139 13.436C97.0139 11.948 97.0259 10.868 97.0499 10.196C97.1699 7.172 98.0699 4.796 99.7499 3.068C101.43 1.316 103.866 0.439999 107.058 0.439999C109.194 0.439999 111.006 0.823999 112.494 1.592C113.982 2.336 115.11 3.32 115.878 4.544C116.646 5.768 117.066 7.076 117.138 8.468V8.54C117.138 8.732 117.054 8.9 116.886 9.044C116.742 9.164 116.574 9.224 116.382 9.224H114.402C113.922 9.224 113.622 8.948 113.502 8.396C113.094 6.596 112.362 5.336 111.306 4.616C110.25 3.872 108.834 3.5 107.058 3.5C102.93 3.5 100.794 5.792 100.65 10.376C100.626 11.024 100.614 12.02 100.614 13.364C100.614 14.708 100.626 15.728 100.65 16.424C100.794 21.008 102.93 23.3 107.058 23.3C108.834 23.3 110.25 22.94 111.306 22.22C112.386 21.476 113.118 20.204 113.502 18.404C113.574 18.092 113.682 17.876 113.826 17.756C113.97 17.636 114.162 17.576 114.402 17.576H116.382C116.598 17.576 116.778 17.648 116.922 17.792C117.09 17.912 117.162 18.08 117.138 18.296C117.066 19.712 116.646 21.032 115.878 22.256C115.11 23.48 113.982 24.476 112.494 25.244C111.006 25.988 109.194 26.36 107.058 26.36ZM146.015 26C145.775 26 145.571 25.928 145.403 25.784C145.259 25.616 145.187 25.412 145.187 25.172V1.664C145.187 1.4 145.259 1.196 145.403 1.052C145.571 0.883999 145.775 0.799998 146.015 0.799998H155.879C158.447 0.799998 160.379 1.412 161.675 2.636C162.971 3.86 163.619 5.468 163.619 7.46C163.619 8.804 163.307 9.92 162.683 10.808C162.083 11.696 161.363 12.344 160.523 12.752C161.531 13.256 162.383 14.036 163.079 15.092C163.775 16.148 164.123 17.36 164.123 18.728C164.123 20.072 163.811 21.296 163.187 22.4C162.587 23.504 161.687 24.38 160.487 25.028C159.287 25.676 157.847 26 156.167 26H146.015ZM155.339 11.456C156.851 11.456 158.003 11.108 158.795 10.412C159.611 9.716 160.019 8.744 160.019 7.496C160.019 6.272 159.623 5.336 158.831 4.688C158.039 4.04 156.875 3.716 155.339 3.716H148.715V11.456H155.339ZM155.699 23.084C157.211 23.084 158.387 22.676 159.227 21.86C160.091 21.044 160.523 20 160.523 18.728C160.523 17.408 160.091 16.352 159.227 15.56C158.387 14.744 157.211 14.336 155.699 14.336H148.715V23.084H155.699ZM177.262 26C177.022 26 176.818 25.928 176.65 25.784C176.506 25.616 176.434 25.412 176.434 25.172V1.664C176.434 1.4 176.506 1.196 176.65 1.052C176.818 0.883999 177.022 0.799998 177.262 0.799998H192.13C192.37 0.799998 192.562 0.883999 192.706 1.052C192.874 1.196 192.958 1.4 192.958 1.664V3.032C192.958 3.272 192.886 3.476 192.742 3.644C192.598 3.788 192.394 3.86 192.13 3.86H179.89V11.744H191.338C191.578 11.744 191.77 11.828 191.914 11.996C192.082 12.14 192.166 12.344 192.166 12.608V13.94C192.166 14.18 192.082 14.384 191.914 14.552C191.77 14.696 191.578 14.768 191.338 14.768H179.89V22.94H192.418C192.682 22.94 192.886 23.012 193.03 23.156C193.174 23.3 193.246 23.504 193.246 23.768V25.172C193.246 25.412 193.162 25.616 192.994 25.784C192.85 25.928 192.658 26 192.418 26H177.262ZM206.294 26C206.054 26 205.85 25.928 205.682 25.784C205.538 25.616 205.466 25.412 205.466 25.172V1.664C205.466 1.4 205.538 1.196 205.682 1.052C205.85 0.883999 206.054 0.799998 206.294 0.799998H215.078C217.838 0.799998 219.998 1.448 221.558 2.744C223.118 4.04 223.898 5.912 223.898 8.36C223.898 10.184 223.442 11.684 222.53 12.86C221.642 14.036 220.382 14.852 218.75 15.308L224.294 24.884C224.366 25.028 224.402 25.16 224.402 25.28C224.402 25.472 224.318 25.64 224.15 25.784C224.006 25.928 223.838 26 223.646 26H221.918C221.558 26 221.27 25.916 221.054 25.748C220.862 25.58 220.682 25.34 220.514 25.028L215.294 15.884H208.994V25.172C208.994 25.412 208.91 25.616 208.742 25.784C208.574 25.928 208.37 26 208.13 26H206.294ZM214.934 12.824C218.51 12.824 220.298 11.324 220.298 8.324C220.298 5.324 218.51 3.824 214.934 3.824H208.994V12.824H214.934ZM237.083 26C236.843 26 236.639 25.928 236.471 25.784C236.327 25.616 236.255 25.412 236.255 25.172V1.628C236.255 1.388 236.327 1.196 236.471 1.052C236.639 0.883999 236.843 0.799998 237.083 0.799998H238.991C239.231 0.799998 239.423 0.883999 239.567 1.052C239.735 1.196 239.819 1.388 239.819 1.628V22.868H251.771C252.035 22.868 252.239 22.952 252.383 23.12C252.551 23.264 252.635 23.468 252.635 23.732V25.172C252.635 25.412 252.551 25.616 252.383 25.784C252.215 25.928 252.011 26 251.771 26H237.083ZM264.569 26C264.329 26 264.125 25.928 263.957 25.784C263.813 25.616 263.741 25.412 263.741 25.172V1.628C263.741 1.388 263.813 1.196 263.957 1.052C264.125 0.883999 264.329 0.799998 264.569 0.799998H266.477C266.717 0.799998 266.909 0.883999 267.053 1.052C267.221 1.196 267.305 1.388 267.305 1.628V25.172C267.305 25.412 267.221 25.616 267.053 25.784C266.909 25.928 266.717 26 266.477 26H264.569ZM281.612 26C281.372 26 281.168 25.928 281 25.784C280.856 25.616 280.784 25.412 280.784 25.172V1.664C280.784 1.4 280.856 1.196 281 1.052C281.168 0.883999 281.372 0.799998 281.612 0.799998H283.268C283.7 0.799998 284 0.967998 284.168 1.304L296.12 19.664V1.664C296.12 1.4 296.192 1.196 296.336 1.052C296.504 0.883999 296.708 0.799998 296.948 0.799998H298.676C298.94 0.799998 299.144 0.883999 299.288 1.052C299.456 1.196 299.54 1.4 299.54 1.664V25.136C299.54 25.376 299.456 25.58 299.288 25.748C299.144 25.916 298.952 26 298.712 26H296.984C296.624 26 296.336 25.832 296.12 25.496L284.204 7.316V25.172C284.204 25.412 284.12 25.616 283.952 25.784C283.784 25.928 283.58 26 283.34 26H281.612ZM313.844 26C313.604 26 313.4 25.928 313.232 25.784C313.088 25.616 313.016 25.412 313.016 25.172V1.664C313.016 1.4 313.088 1.196 313.232 1.052C313.4 0.883999 313.604 0.799998 313.844 0.799998H328.712C328.952 0.799998 329.144 0.883999 329.288 1.052C329.456 1.196 329.54 1.4 329.54 1.664V3.032C329.54 3.272 329.468 3.476 329.324 3.644C329.18 3.788 328.976 3.86 328.712 3.86H316.472V11.744H327.92C328.16 11.744 328.352 11.828 328.496 11.996C328.664 12.14 328.748 12.344 328.748 12.608V13.94C328.748 14.18 328.664 14.384 328.496 14.552C328.352 14.696 328.16 14.768 327.92 14.768H316.472V22.94H329C329.264 22.94 329.468 23.012 329.612 23.156C329.756 23.3 329.828 23.504 329.828 23.768V25.172C329.828 25.412 329.744 25.616 329.576 25.784C329.432 25.928 329.24 26 329 26H313.844ZM342.876 26C342.636 26 342.432 25.928 342.264 25.784C342.12 25.616 342.048 25.412 342.048 25.172V1.664C342.048 1.4 342.12 1.196 342.264 1.052C342.432 0.883999 342.636 0.799998 342.876 0.799998H351.66C354.42 0.799998 356.58 1.448 358.14 2.744C359.7 4.04 360.48 5.912 360.48 8.36C360.48 10.184 360.024 11.684 359.112 12.86C358.224 14.036 356.964 14.852 355.332 15.308L360.876 24.884C360.948 25.028 360.984 25.16 360.984 25.28C360.984 25.472 360.9 25.64 360.732 25.784C360.588 25.928 360.42 26 360.228 26H358.5C358.14 26 357.852 25.916 357.636 25.748C357.444 25.58 357.264 25.34 357.096 25.028L351.876 15.884H345.576V25.172C345.576 25.412 345.492 25.616 345.324 25.784C345.156 25.928 344.952 26 344.712 26H342.876ZM351.516 12.824C355.092 12.824 356.88 11.324 356.88 8.324C356.88 5.324 355.092 3.824 351.516 3.824H345.576V12.824H351.516Z" fill="white"/>
<path d="M388.253 26C388.013 26 387.821 25.928 387.677 25.784C387.533 25.64 387.461 25.448 387.461 25.208V1.628C387.461 1.364 387.533 1.16 387.677 1.016C387.821 0.871999 388.013 0.799998 388.253 0.799998H395.921C398.465 0.799998 400.457 1.172 401.897 1.916C403.337 2.66 404.357 3.764 404.957 5.228C405.581 6.668 405.905 8.432 405.929 10.52C405.953 11.6 405.965 12.56 405.965 13.4C405.965 14.216 405.953 15.164 405.929 16.244C405.881 18.452 405.557 20.276 404.957 21.716C404.357 23.156 403.349 24.236 401.933 24.956C400.517 25.652 398.573 26 396.101 26H388.253ZM389.729 23.84H395.921C397.841 23.84 399.353 23.588 400.457 23.084C401.585 22.556 402.389 21.728 402.869 20.6C403.373 19.448 403.637 17.936 403.661 16.064C403.685 15.344 403.697 14.72 403.697 14.192C403.697 13.64 403.697 13.1 403.697 12.572C403.697 12.044 403.685 11.42 403.661 10.7C403.613 8.06 403.001 6.116 401.825 4.868C400.649 3.596 398.621 2.96 395.741 2.96H389.729V23.84ZM419.817 26C419.577 26 419.385 25.928 419.241 25.784C419.097 25.64 419.025 25.448 419.025 25.208V1.628C419.025 1.364 419.097 1.16 419.241 1.016C419.385 0.871999 419.577 0.799998 419.817 0.799998H433.857C434.121 0.799998 434.325 0.871999 434.469 1.016C434.613 1.16 434.685 1.364 434.685 1.628V2.168C434.685 2.408 434.613 2.6 434.469 2.744C434.325 2.888 434.121 2.96 433.857 2.96H421.293V12.14H433.065C433.329 12.14 433.533 12.212 433.677 12.356C433.821 12.5 433.893 12.704 433.893 12.968V13.508C433.893 13.748 433.821 13.94 433.677 14.084C433.533 14.228 433.329 14.3 433.065 14.3H421.293V23.84H434.145C434.409 23.84 434.613 23.912 434.757 24.056C434.901 24.2 434.973 24.404 434.973 24.668V25.208C434.973 25.448 434.901 25.64 434.757 25.784C434.613 25.928 434.409 26 434.145 26H419.817ZM455.089 26.36C453.145 26.36 451.489 26.048 450.121 25.424C448.777 24.8 447.745 23.996 447.025 23.012C446.305 22.028 445.921 20.984 445.873 19.88C445.873 19.688 445.945 19.52 446.089 19.376C446.233 19.232 446.413 19.16 446.629 19.16H447.349C447.589 19.16 447.769 19.232 447.889 19.376C448.033 19.52 448.117 19.688 448.141 19.88C448.237 20.552 448.537 21.224 449.041 21.896C449.545 22.544 450.289 23.096 451.273 23.552C452.257 23.984 453.529 24.2 455.089 24.2C457.441 24.2 459.157 23.78 460.237 22.94C461.317 22.076 461.857 20.924 461.857 19.484C461.857 18.524 461.569 17.756 460.993 17.18C460.441 16.58 459.589 16.052 458.437 15.596C457.285 15.116 455.809 14.588 454.009 14.012C452.305 13.46 450.901 12.896 449.797 12.32C448.693 11.72 447.877 11 447.349 10.16C446.845 9.32 446.593 8.24 446.593 6.92C446.593 5.696 446.917 4.604 447.565 3.644C448.213 2.66 449.149 1.88 450.373 1.304C451.621 0.727998 453.133 0.439999 454.909 0.439999C456.325 0.439999 457.561 0.631999 458.617 1.016C459.673 1.4 460.549 1.916 461.245 2.564C461.941 3.188 462.469 3.872 462.829 4.616C463.189 5.336 463.381 6.044 463.405 6.74C463.405 6.908 463.345 7.076 463.225 7.244C463.105 7.388 462.913 7.46 462.649 7.46H461.929C461.809 7.46 461.653 7.412 461.461 7.316C461.293 7.22 461.185 7.028 461.137 6.74C460.993 5.54 460.357 4.556 459.229 3.788C458.125 2.996 456.685 2.6 454.909 2.6C453.133 2.6 451.681 2.948 450.553 3.644C449.425 4.34 448.861 5.432 448.861 6.92C448.861 7.88 449.113 8.672 449.617 9.296C450.121 9.896 450.913 10.436 451.993 10.916C453.073 11.372 454.465 11.876 456.169 12.428C457.969 13.004 459.457 13.58 460.633 14.156C461.809 14.732 462.685 15.44 463.261 16.28C463.837 17.096 464.125 18.164 464.125 19.484C464.125 20.948 463.753 22.196 463.009 23.228C462.289 24.236 461.257 25.016 459.913 25.568C458.569 26.096 456.961 26.36 455.089 26.36ZM477.318 26C477.078 26 476.886 25.928 476.742 25.784C476.598 25.64 476.526 25.448 476.526 25.208V1.592C476.526 1.352 476.598 1.16 476.742 1.016C476.886 0.871999 477.078 0.799998 477.318 0.799998H478.002C478.242 0.799998 478.434 0.871999 478.578 1.016C478.722 1.16 478.794 1.352 478.794 1.592V25.208C478.794 25.448 478.722 25.64 478.578 25.784C478.434 25.928 478.242 26 478.002 26H477.318ZM501.401 26.36C499.337 26.36 497.597 25.964 496.181 25.172C494.789 24.356 493.721 23.228 492.977 21.788C492.257 20.348 491.861 18.692 491.789 16.82C491.765 15.74 491.753 14.6 491.753 13.4C491.753 12.2 491.765 11.06 491.789 9.98C491.861 8.084 492.257 6.428 492.977 5.012C493.721 3.572 494.801 2.456 496.217 1.664C497.633 0.847998 499.361 0.439999 501.401 0.439999C503.057 0.439999 504.473 0.691999 505.649 1.196C506.825 1.676 507.785 2.288 508.529 3.032C509.273 3.752 509.825 4.484 510.185 5.228C510.545 5.972 510.737 6.596 510.761 7.1C510.785 7.316 510.725 7.496 510.581 7.64C510.437 7.76 510.245 7.82 510.005 7.82H509.213C508.997 7.82 508.841 7.772 508.745 7.676C508.649 7.556 508.553 7.364 508.457 7.1C508.217 6.356 507.809 5.648 507.233 4.976C506.681 4.28 505.925 3.716 504.965 3.284C504.029 2.828 502.841 2.6 501.401 2.6C499.265 2.6 497.525 3.188 496.181 4.364C494.861 5.516 494.153 7.448 494.057 10.16C493.985 12.32 493.985 14.48 494.057 16.64C494.153 19.328 494.861 21.26 496.181 22.436C497.525 23.612 499.265 24.2 501.401 24.2C502.817 24.2 504.089 23.936 505.217 23.408C506.345 22.856 507.233 22.028 507.881 20.924C508.529 19.796 508.853 18.368 508.853 16.64V14.804H502.589C502.349 14.804 502.157 14.732 502.013 14.588C501.869 14.42 501.797 14.216 501.797 13.976V13.472C501.797 13.208 501.869 13.004 502.013 12.86C502.157 12.716 502.349 12.644 502.589 12.644H510.293C510.557 12.644 510.761 12.716 510.905 12.86C511.049 13.004 511.121 13.208 511.121 13.472V16.64C511.121 18.56 510.737 20.252 509.969 21.716C509.225 23.18 508.121 24.32 506.657 25.136C505.217 25.952 503.465 26.36 501.401 26.36ZM524.66 26C524.42 26 524.228 25.928 524.084 25.784C523.94 25.64 523.868 25.448 523.868 25.208V1.628C523.868 1.364 523.94 1.16 524.084 1.016C524.228 0.871999 524.42 0.799998 524.66 0.799998H525.416C525.656 0.799998 525.836 0.859998 525.956 0.979998C526.076 1.1 526.148 1.184 526.172 1.232L539.456 21.536V1.628C539.456 1.364 539.528 1.16 539.672 1.016C539.816 0.871999 540.008 0.799998 540.248 0.799998H540.896C541.16 0.799998 541.364 0.871999 541.508 1.016C541.652 1.16 541.724 1.364 541.724 1.628V25.172C541.724 25.412 541.652 25.616 541.508 25.784C541.364 25.928 541.172 26 540.932 26H540.14C539.9 26 539.72 25.94 539.6 25.82C539.504 25.7 539.432 25.616 539.384 25.568L526.136 5.336V25.208C526.136 25.448 526.064 25.64 525.92 25.784C525.776 25.928 525.572 26 525.308 26H524.66Z" fill="#03DAC6"/>
</svg>
