<svg width="549" height="30" viewBox="0 0 549 30" fill="none" xmlns="http://www.w3.org/2000/svg">
<path d="M1.12 29C0.826667 29 0.586667 28.92 0.4 28.76C0.213333 28.5733 0.12 28.3333 0.12 28.04V2C0.12 1.70667 0.213333 1.46667 0.4 1.28C0.586667 1.09333 0.826667 0.999998 1.12 0.999998H4.28C4.84 0.999998 5.24 1.25333 5.48 1.76L13.2 16.16L21 1.76C21.2667 1.25333 21.6667 0.999998 22.2 0.999998H25.32C25.6133 0.999998 25.8533 1.09333 26.04 1.28C26.2267 1.46667 26.32 1.70667 26.32 2V28.04C26.32 28.3333 26.2267 28.5733 26.04 28.76C25.8533 28.92 25.6133 29 25.32 29H21.96C21.6933 29 21.4667 28.9067 21.28 28.72C21.0933 28.5333 21 28.3067 21 28.04V10.72L15.4 21.4C15.0533 21.9867 14.6 22.28 14.04 22.28H12.4C11.84 22.28 11.3867 21.9867 11.04 21.4L5.44 10.72V28.04C5.44 28.3067 5.34667 28.5333 5.16 28.72C5 28.9067 4.77333 29 4.48 29H1.12ZM34.8219 29C34.6085 29 34.4085 28.92 34.2219 28.76C34.0619 28.6 33.9819 28.4 33.9819 28.16L34.0619 27.8L43.7019 2C43.8885 1.33333 44.3552 0.999998 45.1019 0.999998H49.4619C50.1552 0.999998 50.6219 1.33333 50.8619 2L60.5019 27.8C60.5285 27.88 60.5419 28 60.5419 28.16C60.5419 28.4 60.4619 28.6 60.3019 28.76C60.1419 28.92 59.9552 29 59.7419 29H56.2619C55.9152 29 55.6485 28.92 55.4619 28.76C55.2752 28.6 55.1552 28.4267 55.1019 28.24L53.2219 23.36H41.3419L39.4619 28.24C39.2485 28.7467 38.8619 29 38.3019 29H34.8219ZM51.8219 18.76L47.2619 6.4L42.7419 18.76H51.8219ZM69.2363 29C68.9696 29 68.7429 28.9067 68.5563 28.72C68.3696 28.5333 68.2763 28.3067 68.2763 28.04V2C68.2763 1.70667 68.3563 1.46667 68.5163 1.28C68.7029 1.09333 68.9429 0.999998 69.2363 0.999998H79.5963C82.8496 0.999998 85.3963 1.76 87.2363 3.28C89.1029 4.8 90.0363 6.96 90.0363 9.76C90.0363 11.7067 89.5563 13.3467 88.5963 14.68C87.6629 15.9867 86.3563 16.9333 84.6763 17.52L90.5163 27.72C90.5963 27.88 90.6363 28.0267 90.6363 28.16C90.6363 28.4 90.5429 28.6 90.3563 28.76C90.1963 28.92 90.0096 29 89.7963 29H86.1563C85.7296 29 85.3963 28.9067 85.1562 28.72C84.9429 28.5333 84.7429 28.2667 84.5563 27.92L79.3963 18.44H73.8363V28.04C73.8363 28.3067 73.7429 28.5333 73.5563 28.72C73.3963 28.9067 73.1696 29 72.8763 29H69.2363ZM79.4763 13.92C81.0763 13.92 82.2763 13.56 83.0763 12.84C83.9029 12.12 84.3163 11.08 84.3163 9.72C84.3163 8.36 83.9029 7.30666 83.0763 6.56C82.2763 5.81333 81.0763 5.44 79.4763 5.44H73.8363V13.92H79.4763ZM109.912 29.4C106.232 29.4 103.379 28.4533 101.352 26.56C99.3522 24.6667 98.2855 22 98.1522 18.56C98.1255 17.84 98.1122 16.6667 98.1122 15.04C98.1122 13.3867 98.1255 12.1867 98.1522 11.44C98.2855 8.02667 99.3655 5.37333 101.392 3.48C103.446 1.56 106.286 0.599998 109.912 0.599998C112.286 0.599998 114.352 1.01333 116.112 1.84C117.872 2.64 119.232 3.74667 120.192 5.16C121.152 6.54667 121.659 8.12 121.712 9.88V9.96C121.712 10.1733 121.619 10.36 121.432 10.52C121.272 10.6533 121.086 10.72 120.872 10.72H117.072C116.752 10.72 116.512 10.6533 116.352 10.52C116.192 10.3867 116.059 10.1333 115.952 9.76C115.526 8.08 114.819 6.90667 113.832 6.24C112.846 5.54667 111.526 5.2 109.872 5.2C106.032 5.2 104.032 7.34667 103.872 11.64C103.846 12.36 103.832 13.4667 103.832 14.96C103.832 16.4533 103.846 17.5867 103.872 18.36C104.032 22.6533 106.032 24.8 109.872 24.8C111.526 24.8 112.846 24.4533 113.832 23.76C114.846 23.0667 115.552 21.8933 115.952 20.24C116.032 19.8667 116.152 19.6133 116.312 19.48C116.499 19.3467 116.752 19.28 117.072 19.28H120.872C121.112 19.28 121.312 19.36 121.472 19.52C121.659 19.68 121.739 19.88 121.712 20.12C121.659 21.88 121.152 23.4667 120.192 24.88C119.232 26.2667 117.872 27.3733 116.112 28.2C114.352 29 112.286 29.4 109.912 29.4ZM144.557 29C144.29 29 144.063 28.9067 143.877 28.72C143.69 28.5333 143.597 28.3067 143.597 28.04V2C143.597 1.70667 143.677 1.46667 143.837 1.28C144.023 1.09333 144.263 0.999998 144.557 0.999998H156.157C159.277 0.999998 161.597 1.69333 163.117 3.08C164.663 4.44 165.437 6.30667 165.437 8.68C165.437 10.0667 165.09 11.2533 164.397 12.24C163.73 13.2 162.943 13.8933 162.037 14.32C163.157 14.8267 164.09 15.6533 164.837 16.8C165.61 17.9467 165.997 19.2533 165.997 20.72C165.997 23.2 165.157 25.2 163.477 26.72C161.823 28.24 159.49 29 156.477 29H144.557ZM155.437 12.48C156.823 12.48 157.877 12.1467 158.597 11.48C159.317 10.8133 159.677 9.92 159.677 8.8C159.677 7.65333 159.317 6.77333 158.597 6.16C157.877 5.52 156.823 5.2 155.437 5.2H149.157V12.48H155.437ZM155.837 24.76C157.223 24.76 158.303 24.3867 159.077 23.64C159.85 22.8667 160.237 21.8933 160.237 20.72C160.237 19.52 159.85 18.5467 159.077 17.8C158.303 17.0267 157.223 16.64 155.837 16.64H149.157V24.76H155.837ZM175.978 29C175.712 29 175.485 28.9067 175.298 28.72C175.112 28.5333 175.018 28.3067 175.018 28.04V2C175.018 1.70667 175.098 1.46667 175.258 1.28C175.445 1.09333 175.685 0.999998 175.978 0.999998H193.578C193.872 0.999998 194.112 1.09333 194.298 1.28C194.485 1.46667 194.578 1.70667 194.578 2V4.64C194.578 4.93333 194.485 5.17333 194.298 5.36C194.112 5.52 193.872 5.6 193.578 5.6H180.418V12.68H192.698C192.992 12.68 193.232 12.7733 193.418 12.96C193.605 13.12 193.698 13.3467 193.698 13.64V16.12C193.698 16.4133 193.605 16.6533 193.418 16.84C193.232 17 192.992 17.08 192.698 17.08H180.418V24.4H193.898C194.192 24.4 194.432 24.4933 194.618 24.68C194.805 24.8667 194.898 25.1067 194.898 25.4V28.04C194.898 28.3333 194.805 28.5733 194.618 28.76C194.432 28.92 194.192 29 193.898 29H175.978ZM204.861 29C204.595 29 204.368 28.9067 204.181 28.72C203.995 28.5333 203.901 28.3067 203.901 28.04V2C203.901 1.70667 203.981 1.46667 204.141 1.28C204.328 1.09333 204.568 0.999998 204.861 0.999998H215.221C218.475 0.999998 221.021 1.76 222.861 3.28C224.728 4.8 225.661 6.96 225.661 9.76C225.661 11.7067 225.181 13.3467 224.221 14.68C223.288 15.9867 221.981 16.9333 220.301 17.52L226.141 27.72C226.221 27.88 226.261 28.0267 226.261 28.16C226.261 28.4 226.168 28.6 225.981 28.76C225.821 28.92 225.635 29 225.421 29H221.781C221.355 29 221.021 28.9067 220.781 28.72C220.568 28.5333 220.368 28.2667 220.181 27.92L215.021 18.44H209.461V28.04C209.461 28.3067 209.368 28.5333 209.181 28.72C209.021 28.9067 208.795 29 208.501 29H204.861ZM215.101 13.92C216.701 13.92 217.901 13.56 218.701 12.84C219.528 12.12 219.941 11.08 219.941 9.72C219.941 8.36 219.528 7.30666 218.701 6.56C217.901 5.81333 216.701 5.44 215.101 5.44H209.461V13.92H215.101ZM235.775 29C235.509 29 235.282 28.9067 235.095 28.72C234.909 28.5333 234.815 28.3067 234.815 28.04V1.96C234.815 1.66666 234.909 1.44 235.095 1.28C235.282 1.09333 235.509 0.999998 235.775 0.999998H239.495C239.789 0.999998 240.015 1.09333 240.175 1.28C240.362 1.44 240.455 1.66666 240.455 1.96V24.24H253.135C253.429 24.24 253.669 24.3333 253.855 24.52C254.042 24.7067 254.135 24.9467 254.135 25.24V28.04C254.135 28.3333 254.042 28.5733 253.855 28.76C253.669 28.92 253.429 29 253.135 29H235.775ZM262.978 29C262.712 29 262.485 28.9067 262.298 28.72C262.112 28.5333 262.018 28.3067 262.018 28.04V1.96C262.018 1.66666 262.112 1.44 262.298 1.28C262.485 1.09333 262.712 0.999998 262.978 0.999998H266.738C267.032 0.999998 267.258 1.09333 267.418 1.28C267.605 1.44 267.698 1.66666 267.698 1.96V28.04C267.698 28.3067 267.605 28.5333 267.418 28.72C267.258 28.9067 267.032 29 266.738 29H262.978ZM278.932 29C278.665 29 278.438 28.9067 278.252 28.72C278.065 28.5333 277.972 28.3067 277.972 28.04V2C277.972 1.70667 278.052 1.46667 278.212 1.28C278.398 1.09333 278.638 0.999998 278.932 0.999998H282.012C282.332 0.999998 282.572 1.06666 282.732 1.2C282.892 1.30666 283.038 1.45333 283.172 1.64L294.692 19.56V2C294.692 1.70667 294.772 1.46667 294.932 1.28C295.118 1.09333 295.358 0.999998 295.652 0.999998H299.012C299.305 0.999998 299.545 1.09333 299.732 1.28C299.918 1.46667 300.012 1.70667 300.012 2V28C300.012 28.2933 299.918 28.5333 299.732 28.72C299.545 28.9067 299.318 29 299.052 29H295.932C295.478 29 295.092 28.7867 294.772 28.36L283.292 10.84V28.04C283.292 28.3333 283.198 28.5733 283.012 28.76C282.825 28.92 282.585 29 282.292 29H278.932ZM311.213 29C310.946 29 310.719 28.9067 310.533 28.72C310.346 28.5333 310.253 28.3067 310.253 28.04V2C310.253 1.70667 310.333 1.46667 310.493 1.28C310.679 1.09333 310.919 0.999998 311.213 0.999998H328.813C329.106 0.999998 329.346 1.09333 329.533 1.28C329.719 1.46667 329.813 1.70667 329.813 2V4.64C329.813 4.93333 329.719 5.17333 329.533 5.36C329.346 5.52 329.106 5.6 328.813 5.6H315.653V12.68H327.933C328.226 12.68 328.466 12.7733 328.653 12.96C328.839 13.12 328.933 13.3467 328.933 13.64V16.12C328.933 16.4133 328.839 16.6533 328.653 16.84C328.466 17 328.226 17.08 327.933 17.08H315.653V24.4H329.133C329.426 24.4 329.666 24.4933 329.853 24.68C330.039 24.8667 330.133 25.1067 330.133 25.4V28.04C330.133 28.3333 330.039 28.5733 329.853 28.76C329.666 28.92 329.426 29 329.133 29H311.213ZM340.096 29C339.829 29 339.602 28.9067 339.416 28.72C339.229 28.5333 339.136 28.3067 339.136 28.04V2C339.136 1.70667 339.216 1.46667 339.376 1.28C339.562 1.09333 339.802 0.999998 340.096 0.999998H350.456C353.709 0.999998 356.256 1.76 358.096 3.28C359.962 4.8 360.896 6.96 360.896 9.76C360.896 11.7067 360.416 13.3467 359.456 14.68C358.522 15.9867 357.216 16.9333 355.536 17.52L361.376 27.72C361.456 27.88 361.496 28.0267 361.496 28.16C361.496 28.4 361.402 28.6 361.216 28.76C361.056 28.92 360.869 29 360.656 29H357.016C356.589 29 356.256 28.9067 356.016 28.72C355.802 28.5333 355.602 28.2667 355.416 27.92L350.256 18.44H344.696V28.04C344.696 28.3067 344.602 28.5333 344.416 28.72C344.256 28.9067 344.029 29 343.736 29H340.096ZM350.336 13.92C351.936 13.92 353.136 13.56 353.936 12.84C354.762 12.12 355.176 11.08 355.176 9.72C355.176 8.36 354.762 7.30666 353.936 6.56C353.136 5.81333 351.936 5.44 350.336 5.44H344.696V13.92H350.336Z" fill="white"/>
<path d="M383.87 29C383.577 29 383.337 28.9067 383.15 28.72C382.964 28.5333 382.87 28.2933 382.87 28V2C382.87 1.70667 382.964 1.46667 383.15 1.28C383.337 1.09333 383.577 0.999998 383.87 0.999998H394.27C396.884 0.999998 399.11 1.42666 400.95 2.28C402.79 3.10667 404.204 4.33333 405.19 5.96C406.177 7.56 406.71 9.54667 406.79 11.92C406.817 13.0933 406.83 14.12 406.83 15C406.83 15.88 406.817 16.8933 406.79 18.04C406.684 20.52 406.15 22.5733 405.19 24.2C404.257 25.8267 402.884 27.04 401.07 27.84C399.284 28.6133 397.084 29 394.47 29H383.87ZM390.03 23.24H394.27C395.417 23.24 396.364 23.0667 397.11 22.72C397.884 22.3467 398.457 21.7733 398.83 21C399.23 20.2267 399.444 19.2133 399.47 17.96C399.524 17.1867 399.55 16.4933 399.55 15.88C399.577 15.2667 399.577 14.6533 399.55 14.04C399.55 13.4267 399.524 12.7467 399.47 12C399.417 10.1867 398.937 8.86667 398.03 8.04C397.15 7.18666 395.83 6.76 394.07 6.76H390.03V23.24ZM416.503 29C416.21 29 415.97 28.9067 415.783 28.72C415.596 28.5333 415.503 28.2933 415.503 28V2C415.503 1.70667 415.596 1.46667 415.783 1.28C415.97 1.09333 416.21 0.999998 416.503 0.999998H435.183C435.476 0.999998 435.716 1.09333 435.903 1.28C436.09 1.46667 436.183 1.70667 436.183 2V5.76C436.183 6.05333 436.09 6.29333 435.903 6.48C435.716 6.66666 435.476 6.76 435.183 6.76H422.423V12.16H434.303C434.596 12.16 434.836 12.2667 435.023 12.48C435.21 12.6667 435.303 12.9067 435.303 13.2V16.68C435.303 16.9467 435.21 17.1867 435.023 17.4C434.836 17.5867 434.596 17.68 434.303 17.68H422.423V23.24H435.503C435.796 23.24 436.036 23.3333 436.223 23.52C436.41 23.7067 436.503 23.9467 436.503 24.24V28C436.503 28.2933 436.41 28.5333 436.223 28.72C436.036 28.9067 435.796 29 435.503 29H416.503ZM455.49 29.4C452.823 29.4 450.61 29.0267 448.85 28.28C447.09 27.5067 445.757 26.5067 444.85 25.28C443.943 24.0533 443.463 22.7467 443.41 21.36C443.41 21.1467 443.49 20.96 443.65 20.8C443.837 20.6133 444.05 20.52 444.29 20.52H449.33C449.703 20.52 449.983 20.5867 450.17 20.72C450.383 20.8533 450.57 21.0267 450.73 21.24C450.943 21.64 451.237 22.0267 451.61 22.4C452.01 22.7733 452.517 23.08 453.13 23.32C453.77 23.5333 454.557 23.64 455.49 23.64C457.037 23.64 458.197 23.4 458.97 22.92C459.77 22.44 460.17 21.7867 460.17 20.96C460.17 20.3733 459.957 19.8933 459.53 19.52C459.103 19.12 458.41 18.7733 457.45 18.48C456.517 18.16 455.263 17.84 453.69 17.52C451.663 17.0933 449.93 16.5467 448.49 15.88C447.077 15.1867 445.997 14.2933 445.25 13.2C444.503 12.08 444.13 10.6933 444.13 9.04C444.13 7.41333 444.583 5.96 445.49 4.68C446.423 3.4 447.717 2.4 449.37 1.68C451.023 0.959999 452.983 0.599998 455.25 0.599998C457.09 0.599998 458.703 0.839999 460.09 1.32C461.503 1.8 462.69 2.44 463.65 3.24C464.61 4.04 465.33 4.89333 465.81 5.8C466.317 6.68 466.583 7.54666 466.61 8.4C466.61 8.61333 466.53 8.81333 466.37 9C466.21 9.16 466.01 9.24 465.77 9.24H460.49C460.197 9.24 459.943 9.18667 459.73 9.08C459.517 8.97333 459.33 8.8 459.17 8.56C459.01 7.97333 458.583 7.46666 457.89 7.04C457.223 6.58667 456.343 6.36 455.25 6.36C454.077 6.36 453.157 6.57333 452.49 7C451.85 7.4 451.53 8.02667 451.53 8.88C451.53 9.41333 451.703 9.88 452.05 10.28C452.423 10.68 453.023 11.0267 453.85 11.32C454.703 11.6133 455.863 11.92 457.33 12.24C459.757 12.6933 461.717 13.2667 463.21 13.96C464.703 14.6267 465.797 15.5067 466.49 16.6C467.183 17.6667 467.53 19.0133 467.53 20.64C467.53 22.4533 467.01 24.0267 465.97 25.36C464.957 26.6667 463.543 27.6667 461.73 28.36C459.917 29.0533 457.837 29.4 455.49 29.4ZM476.534 29C476.241 29 476.001 28.9067 475.814 28.72C475.628 28.5333 475.534 28.2933 475.534 28V2C475.534 1.70667 475.628 1.46667 475.814 1.28C476.001 1.09333 476.241 0.999998 476.534 0.999998H481.894C482.188 0.999998 482.428 1.09333 482.614 1.28C482.801 1.46667 482.894 1.70667 482.894 2V28C482.894 28.2933 482.801 28.5333 482.614 28.72C482.428 28.9067 482.188 29 481.894 29H476.534ZM504.063 29.4C501.53 29.4 499.343 28.9867 497.503 28.16C495.69 27.3067 494.276 26.08 493.263 24.48C492.276 22.8533 491.73 20.88 491.623 18.56C491.596 17.4133 491.583 16.2 491.583 14.92C491.583 13.6133 491.596 12.3733 491.623 11.2C491.73 8.93333 492.29 7.01333 493.303 5.44C494.316 3.86667 495.743 2.66667 497.583 1.84C499.423 1.01333 501.583 0.599998 504.063 0.599998C506.063 0.599998 507.836 0.853332 509.383 1.36C510.93 1.84 512.223 2.49333 513.263 3.32C514.33 4.14667 515.13 5.05333 515.663 6.04C516.223 7.02667 516.516 8 516.543 8.96C516.57 9.2 516.49 9.4 516.303 9.56C516.143 9.72 515.943 9.8 515.703 9.8H509.863C509.57 9.8 509.343 9.76 509.183 9.68C509.05 9.57333 508.93 9.42667 508.823 9.24C508.636 8.84 508.356 8.42667 507.983 8C507.636 7.54666 507.143 7.16 506.503 6.84C505.89 6.52 505.076 6.36 504.063 6.36C502.543 6.36 501.343 6.76 500.463 7.56C499.61 8.36 499.143 9.64 499.063 11.4C498.983 13.6933 498.983 16.0133 499.063 18.36C499.143 20.2267 499.636 21.5733 500.543 22.4C501.45 23.2267 502.65 23.64 504.143 23.64C505.156 23.64 506.05 23.4667 506.823 23.12C507.623 22.7733 508.25 22.24 508.703 21.52C509.156 20.7733 509.383 19.8267 509.383 18.68V17.92H505.623C505.33 17.92 505.076 17.8267 504.863 17.64C504.676 17.4267 504.583 17.1733 504.583 16.88V13.92C504.583 13.6267 504.676 13.3867 504.863 13.2C505.076 12.9867 505.33 12.88 505.623 12.88H515.703C515.996 12.88 516.236 12.9867 516.423 13.2C516.61 13.3867 516.703 13.6267 516.703 13.92V18.48C516.703 20.7733 516.183 22.7333 515.143 24.36C514.103 25.9867 512.623 27.24 510.703 28.12C508.81 28.9733 506.596 29.4 504.063 29.4ZM526.292 29C525.999 29 525.759 28.9067 525.572 28.72C525.386 28.5333 525.292 28.2933 525.292 28V2C525.292 1.70667 525.386 1.46667 525.572 1.28C525.759 1.09333 525.999 0.999998 526.292 0.999998H530.532C530.986 0.999998 531.306 1.10666 531.492 1.32C531.706 1.50666 531.839 1.65333 531.892 1.76L541.652 17.16V2C541.652 1.70667 541.746 1.46667 541.932 1.28C542.119 1.09333 542.359 0.999998 542.652 0.999998H547.452C547.746 0.999998 547.986 1.09333 548.172 1.28C548.359 1.46667 548.452 1.70667 548.452 2V28C548.452 28.2667 548.359 28.5067 548.172 28.72C547.986 28.9067 547.746 29 547.452 29H543.172C542.746 29 542.426 28.8933 542.212 28.68C542.026 28.4667 541.906 28.32 541.852 28.24L532.092 13.44V28C532.092 28.2933 531.999 28.5333 531.812 28.72C531.626 28.9067 531.386 29 531.092 29H526.292Z" fill="#2CC9BA"/>
</svg>
