<svg width="553" height="30" viewBox="0 0 553 30" fill="none" xmlns="http://www.w3.org/2000/svg">
<path d="M1.12 29C0.826667 29 0.586667 28.92 0.4 28.76C0.213333 28.5733 0.12 28.3333 0.12 28.04V2C0.12 1.70667 0.213333 1.46667 0.4 1.28C0.586667 1.09333 0.826667 0.999998 1.12 0.999998H4.28C4.84 0.999998 5.24 1.25333 5.48 1.76L13.2 16.16L21 1.76C21.2667 1.25333 21.6667 0.999998 22.2 0.999998H25.32C25.6133 0.999998 25.8533 1.09333 26.04 1.28C26.2267 1.46667 26.32 1.70667 26.32 2V28.04C26.32 28.3333 26.2267 28.5733 26.04 28.76C25.8533 28.92 25.6133 29 25.32 29H21.96C21.6933 29 21.4667 28.9067 21.28 28.72C21.0933 28.5333 21 28.3067 21 28.04V10.72L15.4 21.4C15.0533 21.9867 14.6 22.28 14.04 22.28H12.4C11.84 22.28 11.3867 21.9867 11.04 21.4L5.44 10.72V28.04C5.44 28.3067 5.34667 28.5333 5.16 28.72C5 28.9067 4.77333 29 4.48 29H1.12ZM34.8219 29C34.6085 29 34.4085 28.92 34.2219 28.76C34.0619 28.6 33.9819 28.4 33.9819 28.16L34.0619 27.8L43.7019 2C43.8885 1.33333 44.3552 0.999998 45.1019 0.999998H49.4619C50.1552 0.999998 50.6219 1.33333 50.8619 2L60.5019 27.8C60.5285 27.88 60.5419 28 60.5419 28.16C60.5419 28.4 60.4619 28.6 60.3019 28.76C60.1419 28.92 59.9552 29 59.7419 29H56.2619C55.9152 29 55.6485 28.92 55.4619 28.76C55.2752 28.6 55.1552 28.4267 55.1019 28.24L53.2219 23.36H41.3419L39.4619 28.24C39.2485 28.7467 38.8619 29 38.3019 29H34.8219ZM51.8219 18.76L47.2619 6.4L42.7419 18.76H51.8219ZM69.2363 29C68.9696 29 68.7429 28.9067 68.5563 28.72C68.3696 28.5333 68.2763 28.3067 68.2763 28.04V2C68.2763 1.70667 68.3563 1.46667 68.5163 1.28C68.7029 1.09333 68.9429 0.999998 69.2363 0.999998H79.5963C82.8496 0.999998 85.3963 1.76 87.2363 3.28C89.1029 4.8 90.0363 6.96 90.0363 9.76C90.0363 11.7067 89.5563 13.3467 88.5963 14.68C87.6629 15.9867 86.3563 16.9333 84.6763 17.52L90.5163 27.72C90.5963 27.88 90.6363 28.0267 90.6363 28.16C90.6363 28.4 90.5429 28.6 90.3563 28.76C90.1963 28.92 90.0096 29 89.7963 29H86.1563C85.7296 29 85.3963 28.9067 85.1562 28.72C84.9429 28.5333 84.7429 28.2667 84.5563 27.92L79.3963 18.44H73.8363V28.04C73.8363 28.3067 73.7429 28.5333 73.5563 28.72C73.3963 28.9067 73.1696 29 72.8763 29H69.2363ZM79.4763 13.92C81.0763 13.92 82.2763 13.56 83.0763 12.84C83.9029 12.12 84.3163 11.08 84.3163 9.72C84.3163 8.36 83.9029 7.30666 83.0763 6.56C82.2763 5.81333 81.0763 5.44 79.4763 5.44H73.8363V13.92H79.4763ZM109.912 29.4C106.232 29.4 103.379 28.4533 101.352 26.56C99.3522 24.6667 98.2855 22 98.1522 18.56C98.1255 17.84 98.1122 16.6667 98.1122 15.04C98.1122 13.3867 98.1255 12.1867 98.1522 11.44C98.2855 8.02667 99.3655 5.37333 101.392 3.48C103.446 1.56 106.286 0.599998 109.912 0.599998C112.286 0.599998 114.352 1.01333 116.112 1.84C117.872 2.64 119.232 3.74667 120.192 5.16C121.152 6.54667 121.659 8.12 121.712 9.88V9.96C121.712 10.1733 121.619 10.36 121.432 10.52C121.272 10.6533 121.086 10.72 120.872 10.72H117.072C116.752 10.72 116.512 10.6533 116.352 10.52C116.192 10.3867 116.059 10.1333 115.952 9.76C115.526 8.08 114.819 6.90667 113.832 6.24C112.846 5.54667 111.526 5.2 109.872 5.2C106.032 5.2 104.032 7.34667 103.872 11.64C103.846 12.36 103.832 13.4667 103.832 14.96C103.832 16.4533 103.846 17.5867 103.872 18.36C104.032 22.6533 106.032 24.8 109.872 24.8C111.526 24.8 112.846 24.4533 113.832 23.76C114.846 23.0667 115.552 21.8933 115.952 20.24C116.032 19.8667 116.152 19.6133 116.312 19.48C116.499 19.3467 116.752 19.28 117.072 19.28H120.872C121.112 19.28 121.312 19.36 121.472 19.52C121.659 19.68 121.739 19.88 121.712 20.12C121.659 21.88 121.152 23.4667 120.192 24.88C119.232 26.2667 117.872 27.3733 116.112 28.2C114.352 29 112.286 29.4 109.912 29.4ZM144.557 29C144.29 29 144.063 28.9067 143.877 28.72C143.69 28.5333 143.597 28.3067 143.597 28.04V2C143.597 1.70667 143.677 1.46667 143.837 1.28C144.023 1.09333 144.263 0.999998 144.557 0.999998H156.157C159.277 0.999998 161.597 1.69333 163.117 3.08C164.663 4.44 165.437 6.30667 165.437 8.68C165.437 10.0667 165.09 11.2533 164.397 12.24C163.73 13.2 162.943 13.8933 162.037 14.32C163.157 14.8267 164.09 15.6533 164.837 16.8C165.61 17.9467 165.997 19.2533 165.997 20.72C165.997 23.2 165.157 25.2 163.477 26.72C161.823 28.24 159.49 29 156.477 29H144.557ZM155.437 12.48C156.823 12.48 157.877 12.1467 158.597 11.48C159.317 10.8133 159.677 9.92 159.677 8.8C159.677 7.65333 159.317 6.77333 158.597 6.16C157.877 5.52 156.823 5.2 155.437 5.2H149.157V12.48H155.437ZM155.837 24.76C157.223 24.76 158.303 24.3867 159.077 23.64C159.85 22.8667 160.237 21.8933 160.237 20.72C160.237 19.52 159.85 18.5467 159.077 17.8C158.303 17.0267 157.223 16.64 155.837 16.64H149.157V24.76H155.837ZM175.978 29C175.712 29 175.485 28.9067 175.298 28.72C175.112 28.5333 175.018 28.3067 175.018 28.04V2C175.018 1.70667 175.098 1.46667 175.258 1.28C175.445 1.09333 175.685 0.999998 175.978 0.999998H193.578C193.872 0.999998 194.112 1.09333 194.298 1.28C194.485 1.46667 194.578 1.70667 194.578 2V4.64C194.578 4.93333 194.485 5.17333 194.298 5.36C194.112 5.52 193.872 5.6 193.578 5.6H180.418V12.68H192.698C192.992 12.68 193.232 12.7733 193.418 12.96C193.605 13.12 193.698 13.3467 193.698 13.64V16.12C193.698 16.4133 193.605 16.6533 193.418 16.84C193.232 17 192.992 17.08 192.698 17.08H180.418V24.4H193.898C194.192 24.4 194.432 24.4933 194.618 24.68C194.805 24.8667 194.898 25.1067 194.898 25.4V28.04C194.898 28.3333 194.805 28.5733 194.618 28.76C194.432 28.92 194.192 29 193.898 29H175.978ZM204.861 29C204.595 29 204.368 28.9067 204.181 28.72C203.995 28.5333 203.901 28.3067 203.901 28.04V2C203.901 1.70667 203.981 1.46667 204.141 1.28C204.328 1.09333 204.568 0.999998 204.861 0.999998H215.221C218.475 0.999998 221.021 1.76 222.861 3.28C224.728 4.8 225.661 6.96 225.661 9.76C225.661 11.7067 225.181 13.3467 224.221 14.68C223.288 15.9867 221.981 16.9333 220.301 17.52L226.141 27.72C226.221 27.88 226.261 28.0267 226.261 28.16C226.261 28.4 226.168 28.6 225.981 28.76C225.821 28.92 225.635 29 225.421 29H221.781C221.355 29 221.021 28.9067 220.781 28.72C220.568 28.5333 220.368 28.2667 220.181 27.92L215.021 18.44H209.461V28.04C209.461 28.3067 209.368 28.5333 209.181 28.72C209.021 28.9067 208.795 29 208.501 29H204.861ZM215.101 13.92C216.701 13.92 217.901 13.56 218.701 12.84C219.528 12.12 219.941 11.08 219.941 9.72C219.941 8.36 219.528 7.30666 218.701 6.56C217.901 5.81333 216.701 5.44 215.101 5.44H209.461V13.92H215.101ZM235.775 29C235.509 29 235.282 28.9067 235.095 28.72C234.909 28.5333 234.815 28.3067 234.815 28.04V1.96C234.815 1.66666 234.909 1.44 235.095 1.28C235.282 1.09333 235.509 0.999998 235.775 0.999998H239.495C239.789 0.999998 240.015 1.09333 240.175 1.28C240.362 1.44 240.455 1.66666 240.455 1.96V24.24H253.135C253.429 24.24 253.669 24.3333 253.855 24.52C254.042 24.7067 254.135 24.9467 254.135 25.24V28.04C254.135 28.3333 254.042 28.5733 253.855 28.76C253.669 28.92 253.429 29 253.135 29H235.775ZM262.978 29C262.712 29 262.485 28.9067 262.298 28.72C262.112 28.5333 262.018 28.3067 262.018 28.04V1.96C262.018 1.66666 262.112 1.44 262.298 1.28C262.485 1.09333 262.712 0.999998 262.978 0.999998H266.738C267.032 0.999998 267.258 1.09333 267.418 1.28C267.605 1.44 267.698 1.66666 267.698 1.96V28.04C267.698 28.3067 267.605 28.5333 267.418 28.72C267.258 28.9067 267.032 29 266.738 29H262.978ZM278.932 29C278.665 29 278.438 28.9067 278.252 28.72C278.065 28.5333 277.972 28.3067 277.972 28.04V2C277.972 1.70667 278.052 1.46667 278.212 1.28C278.398 1.09333 278.638 0.999998 278.932 0.999998H282.012C282.332 0.999998 282.572 1.06666 282.732 1.2C282.892 1.30666 283.038 1.45333 283.172 1.64L294.692 19.56V2C294.692 1.70667 294.772 1.46667 294.932 1.28C295.118 1.09333 295.358 0.999998 295.652 0.999998H299.012C299.305 0.999998 299.545 1.09333 299.732 1.28C299.918 1.46667 300.012 1.70667 300.012 2V28C300.012 28.2933 299.918 28.5333 299.732 28.72C299.545 28.9067 299.318 29 299.052 29H295.932C295.478 29 295.092 28.7867 294.772 28.36L283.292 10.84V28.04C283.292 28.3333 283.198 28.5733 283.012 28.76C282.825 28.92 282.585 29 282.292 29H278.932ZM311.213 29C310.946 29 310.719 28.9067 310.533 28.72C310.346 28.5333 310.253 28.3067 310.253 28.04V2C310.253 1.70667 310.333 1.46667 310.493 1.28C310.679 1.09333 310.919 0.999998 311.213 0.999998H328.813C329.106 0.999998 329.346 1.09333 329.533 1.28C329.719 1.46667 329.813 1.70667 329.813 2V4.64C329.813 4.93333 329.719 5.17333 329.533 5.36C329.346 5.52 329.106 5.6 328.813 5.6H315.653V12.68H327.933C328.226 12.68 328.466 12.7733 328.653 12.96C328.839 13.12 328.933 13.3467 328.933 13.64V16.12C328.933 16.4133 328.839 16.6533 328.653 16.84C328.466 17 328.226 17.08 327.933 17.08H315.653V24.4H329.133C329.426 24.4 329.666 24.4933 329.853 24.68C330.039 24.8667 330.133 25.1067 330.133 25.4V28.04C330.133 28.3333 330.039 28.5733 329.853 28.76C329.666 28.92 329.426 29 329.133 29H311.213ZM340.096 29C339.829 29 339.602 28.9067 339.416 28.72C339.229 28.5333 339.136 28.3067 339.136 28.04V2C339.136 1.70667 339.216 1.46667 339.376 1.28C339.562 1.09333 339.802 0.999998 340.096 0.999998H350.456C353.709 0.999998 356.256 1.76 358.096 3.28C359.962 4.8 360.896 6.96 360.896 9.76C360.896 11.7067 360.416 13.3467 359.456 14.68C358.522 15.9867 357.216 16.9333 355.536 17.52L361.376 27.72C361.456 27.88 361.496 28.0267 361.496 28.16C361.496 28.4 361.402 28.6 361.216 28.76C361.056 28.92 360.869 29 360.656 29H357.016C356.589 29 356.256 28.9067 356.016 28.72C355.802 28.5333 355.602 28.2667 355.416 27.92L350.256 18.44H344.696V28.04C344.696 28.3067 344.602 28.5333 344.416 28.72C344.256 28.9067 344.029 29 343.736 29H340.096ZM350.336 13.92C351.936 13.92 353.136 13.56 353.936 12.84C354.762 12.12 355.176 11.08 355.176 9.72C355.176 8.36 354.762 7.30666 353.936 6.56C353.136 5.81333 351.936 5.44 350.336 5.44H344.696V13.92H350.336Z" fill="#051739"/>
<path d="M383.59 29C383.324 29 383.084 28.9067 382.87 28.72C382.657 28.5067 382.55 28.2533 382.55 27.96V2.04C382.55 1.74666 382.657 1.50666 382.87 1.32C383.084 1.10666 383.324 0.999998 383.59 0.999998H394.55C397.137 0.999998 399.377 1.42666 401.27 2.28C403.164 3.10667 404.657 4.33333 405.75 5.96C406.844 7.58666 407.43 9.58667 407.51 11.96C407.564 13.1067 407.59 14.12 407.59 15C407.59 15.88 407.564 16.88 407.51 18C407.404 20.5067 406.83 22.5733 405.79 24.2C404.777 25.8267 403.337 27.04 401.47 27.84C399.604 28.6133 397.364 29 394.75 29H383.59ZM391.15 22.2H394.55C395.43 22.2 396.177 22.0533 396.79 21.76C397.404 21.4667 397.884 21.0133 398.23 20.4C398.577 19.76 398.764 18.9467 398.79 17.96C398.817 17.1867 398.83 16.4933 398.83 15.88C398.857 15.2667 398.857 14.6533 398.83 14.04C398.83 13.4267 398.817 12.7467 398.79 12C398.737 10.5333 398.31 9.46667 397.51 8.8C396.737 8.13333 395.684 7.8 394.35 7.8H391.15V22.2ZM416.692 29C416.425 29 416.185 28.9067 415.972 28.72C415.759 28.5067 415.652 28.2533 415.652 27.96V2.04C415.652 1.74666 415.759 1.50666 415.972 1.32C416.185 1.10666 416.425 0.999998 416.692 0.999998H436.292C436.585 0.999998 436.839 1.10666 437.052 1.32C437.265 1.50666 437.372 1.74666 437.372 2.04V6.76C437.372 7.02667 437.265 7.26667 437.052 7.48C436.839 7.69333 436.585 7.8 436.292 7.8H423.932V11.76H435.412C435.705 11.76 435.959 11.8667 436.172 12.08C436.385 12.2667 436.492 12.5067 436.492 12.8V17.12C436.492 17.4133 436.385 17.6667 436.172 17.88C435.959 18.0667 435.705 18.16 435.412 18.16H423.932V22.2H436.612C436.905 22.2 437.159 22.3067 437.372 22.52C437.585 22.7333 437.692 22.9867 437.692 23.28V27.96C437.692 28.2533 437.585 28.5067 437.372 28.72C437.159 28.9067 436.905 29 436.612 29H416.692ZM456.865 29.4C454.065 29.4 451.731 29.0133 449.865 28.24C448.025 27.44 446.638 26.4133 445.705 25.16C444.798 23.88 444.318 22.5333 444.265 21.12C444.265 20.88 444.345 20.68 444.505 20.52C444.665 20.36 444.865 20.28 445.105 20.28H451.465C451.838 20.28 452.131 20.3467 452.345 20.48C452.558 20.5867 452.785 20.7467 453.025 20.96C453.265 21.2533 453.545 21.5333 453.865 21.8C454.185 22.04 454.598 22.24 455.105 22.4C455.611 22.5333 456.198 22.6 456.865 22.6C458.091 22.6 459.038 22.44 459.705 22.12C460.371 21.7733 460.705 21.3067 460.705 20.72C460.705 20.2667 460.518 19.8933 460.145 19.6C459.798 19.3067 459.198 19.04 458.345 18.8C457.491 18.56 456.331 18.3067 454.865 18.04C452.811 17.6933 451.038 17.1867 449.545 16.52C448.051 15.8267 446.905 14.9067 446.105 13.76C445.331 12.5867 444.945 11.1467 444.945 9.44C444.945 7.70667 445.425 6.17333 446.385 4.84C447.371 3.50667 448.731 2.46666 450.465 1.72C452.225 0.973332 454.265 0.599998 456.585 0.599998C458.505 0.599998 460.198 0.853332 461.665 1.36C463.158 1.86666 464.411 2.53333 465.425 3.36C466.438 4.16 467.211 5.02667 467.745 5.96C468.278 6.89333 468.558 7.78667 468.585 8.64C468.585 8.88 468.491 9.09333 468.305 9.28C468.145 9.44 467.958 9.52 467.745 9.52H461.065C460.745 9.52 460.465 9.46667 460.225 9.36C460.011 9.25333 459.811 9.08 459.625 8.84C459.491 8.46667 459.158 8.13333 458.625 7.84C458.091 7.54667 457.411 7.4 456.585 7.4C455.678 7.4 454.985 7.56 454.505 7.88C454.025 8.17333 453.785 8.61333 453.785 9.2C453.785 9.6 453.931 9.94667 454.225 10.24C454.518 10.5333 455.038 10.8 455.785 11.04C456.531 11.2533 457.571 11.4933 458.905 11.76C461.438 12.1333 463.478 12.6667 465.025 13.36C466.598 14.0533 467.745 14.96 468.465 16.08C469.185 17.2 469.545 18.6 469.545 20.28C469.545 22.1733 468.998 23.8 467.905 25.16C466.811 26.52 465.305 27.5733 463.385 28.32C461.491 29.04 459.318 29.4 456.865 29.4ZM478.012 29C477.746 29 477.506 28.9067 477.292 28.72C477.079 28.5067 476.972 28.2533 476.972 27.96V2.04C476.972 1.74666 477.079 1.50666 477.292 1.32C477.506 1.10666 477.746 0.999998 478.012 0.999998H484.812C485.106 0.999998 485.346 1.10666 485.532 1.32C485.746 1.50666 485.852 1.74666 485.852 2.04V27.96C485.852 28.2533 485.746 28.5067 485.532 28.72C485.346 28.9067 485.106 29 484.812 29H478.012ZM507 29.4C504.36 29.4 502.094 29 500.2 28.2C498.307 27.3733 496.827 26.1467 495.76 24.52C494.694 22.8933 494.12 20.88 494.04 18.48C494.014 17.36 494 16.16 494 14.88C494 13.5733 494.014 12.3467 494.04 11.2C494.12 8.88 494.694 6.93333 495.76 5.36C496.854 3.78667 498.36 2.6 500.28 1.8C502.2 0.999999 504.44 0.599998 507 0.599998C509.054 0.599998 510.88 0.839999 512.48 1.32C514.08 1.8 515.44 2.45333 516.56 3.28C517.707 4.10667 518.574 5.04 519.16 6.08C519.774 7.09333 520.094 8.14667 520.12 9.24C520.12 9.48 520.027 9.69333 519.84 9.88C519.68 10.04 519.48 10.12 519.24 10.12H511.88C511.614 10.12 511.4 10.08 511.24 10C511.08 9.89333 510.934 9.76 510.8 9.6C510.667 9.33333 510.454 9.02667 510.16 8.68C509.894 8.33333 509.507 8.04 509 7.8C508.494 7.53333 507.827 7.4 507 7.4C505.747 7.4 504.774 7.72 504.08 8.36C503.387 9 503.014 10.0133 502.96 11.4C502.88 13.64 502.88 15.9333 502.96 18.28C503.014 19.8 503.4 20.9067 504.12 21.6C504.867 22.2667 505.867 22.6 507.12 22.6C507.947 22.6 508.68 22.4667 509.32 22.2C509.987 21.9333 510.507 21.52 510.88 20.96C511.254 20.3733 511.44 19.6267 511.44 18.72V18.32H508.6C508.307 18.32 508.054 18.2133 507.84 18C507.654 17.7867 507.56 17.5467 507.56 17.28V13.56C507.56 13.2667 507.654 13.0267 507.84 12.84C508.054 12.6267 508.307 12.52 508.6 12.52H519.12C519.414 12.52 519.667 12.6267 519.88 12.84C520.094 13.0267 520.2 13.2667 520.2 13.56V18.44C520.2 20.7867 519.64 22.7733 518.52 24.4C517.4 26.0267 515.854 27.2667 513.88 28.12C511.907 28.9733 509.614 29.4 507 29.4ZM529.293 29C529.027 29 528.787 28.9067 528.573 28.72C528.36 28.5067 528.253 28.2533 528.253 27.96V2.04C528.253 1.74666 528.36 1.50666 528.573 1.32C528.787 1.10666 529.027 0.999998 529.293 0.999998H534.613C535.093 0.999998 535.44 1.12 535.653 1.36C535.867 1.57333 536.013 1.73333 536.093 1.84L544.333 15.08V2.04C544.333 1.74666 544.44 1.50666 544.653 1.32C544.867 1.10666 545.107 0.999998 545.373 0.999998H551.413C551.707 0.999998 551.947 1.10666 552.133 1.32C552.347 1.50666 552.453 1.74666 552.453 2.04V27.96C552.453 28.2533 552.347 28.5067 552.133 28.72C551.947 28.9067 551.707 29 551.413 29H546.133C545.627 29 545.267 28.8933 545.053 28.68C544.84 28.44 544.693 28.2667 544.613 28.16L536.373 15.68V27.96C536.373 28.2533 536.267 28.5067 536.053 28.72C535.867 28.9067 535.627 29 535.333 29H529.293Z" fill="#486BE8"/>
</svg>
