<svg width="554" height="43" viewBox="0 0 554 43" fill="none" xmlns="http://www.w3.org/2000/svg">
<path d="M3.96 34C3.72 34 3.516 33.928 3.348 33.784C3.204 33.616 3.132 33.412 3.132 33.172V9.664C3.132 9.4 3.204 9.196 3.348 9.052C3.516 8.884 3.72 8.8 3.96 8.8H5.76C6.144 8.8 6.456 8.992 6.696 9.376L14.292 23.92L21.96 9.376C22.008 9.232 22.104 9.1 22.248 8.98C22.416 8.86 22.62 8.8 22.86 8.8H24.624C24.888 8.8 25.092 8.884 25.236 9.052C25.404 9.196 25.488 9.4 25.488 9.664V33.172C25.488 33.412 25.404 33.616 25.236 33.784C25.068 33.928 24.864 34 24.624 34H22.86C22.62 34 22.416 33.928 22.248 33.784C22.104 33.616 22.032 33.412 22.032 33.172V15.46L16.02 27.196C15.78 27.7 15.396 27.952 14.868 27.952H13.752C13.224 27.952 12.84 27.7 12.6 27.196L6.552 15.46V33.172C6.552 33.412 6.468 33.616 6.3 33.784C6.156 33.928 5.964 34 5.724 34H3.96ZM37.222 34C37.03 34 36.862 33.928 36.718 33.784C36.574 33.64 36.502 33.472 36.502 33.28C36.502 33.088 36.514 32.956 36.538 32.884L45.466 9.592C45.658 9.064 46.042 8.8 46.618 8.8H49.066C49.642 8.8 50.026 9.064 50.218 9.592L59.11 32.884L59.182 33.28C59.182 33.472 59.11 33.64 58.966 33.784C58.822 33.928 58.654 34 58.462 34H56.626C56.362 34 56.158 33.94 56.014 33.82C55.87 33.676 55.774 33.532 55.726 33.388L53.746 28.276H41.938L39.958 33.388C39.91 33.532 39.802 33.676 39.634 33.82C39.49 33.94 39.298 34 39.058 34H37.222ZM52.702 25.18L47.842 12.4L42.982 25.18H52.702ZM71.0592 34C70.8192 34 70.6152 33.928 70.4472 33.784C70.3032 33.616 70.2312 33.412 70.2312 33.172V9.664C70.2312 9.4 70.3032 9.196 70.4472 9.052C70.6152 8.884 70.8192 8.8 71.0592 8.8H79.8432C82.6032 8.8 84.7632 9.448 86.3232 10.744C87.8832 12.04 88.6632 13.912 88.6632 16.36C88.6632 18.184 88.2072 19.684 87.2952 20.86C86.4072 22.036 85.1472 22.852 83.5152 23.308L89.0592 32.884C89.1312 33.028 89.1672 33.16 89.1672 33.28C89.1672 33.472 89.0832 33.64 88.9152 33.784C88.7712 33.928 88.6032 34 88.4112 34H86.6832C86.3232 34 86.0352 33.916 85.8192 33.748C85.6272 33.58 85.4472 33.34 85.2792 33.028L80.0592 23.884H73.7592V33.172C73.7592 33.412 73.6752 33.616 73.5072 33.784C73.3392 33.928 73.1352 34 72.8952 34H71.0592ZM79.6992 20.824C83.2752 20.824 85.0632 19.324 85.0632 16.324C85.0632 13.324 83.2752 11.824 79.6992 11.824H73.7592V20.824H79.6992ZM110.058 34.36C106.842 34.36 104.394 33.496 102.714 31.768C101.058 30.04 100.17 27.652 100.05 24.604C100.026 23.956 100.014 22.9 100.014 21.436C100.014 19.948 100.026 18.868 100.05 18.196C100.17 15.172 101.07 12.796 102.75 11.068C104.43 9.316 106.866 8.44 110.058 8.44C112.194 8.44 114.006 8.824 115.494 9.592C116.982 10.336 118.11 11.32 118.878 12.544C119.646 13.768 120.066 15.076 120.138 16.468V16.54C120.138 16.732 120.054 16.9 119.886 17.044C119.742 17.164 119.574 17.224 119.382 17.224H117.402C116.922 17.224 116.622 16.948 116.502 16.396C116.094 14.596 115.362 13.336 114.306 12.616C113.25 11.872 111.834 11.5 110.058 11.5C105.93 11.5 103.794 13.792 103.65 18.376C103.626 19.024 103.614 20.02 103.614 21.364C103.614 22.708 103.626 23.728 103.65 24.424C103.794 29.008 105.93 31.3 110.058 31.3C111.834 31.3 113.25 30.94 114.306 30.22C115.386 29.476 116.118 28.204 116.502 26.404C116.574 26.092 116.682 25.876 116.826 25.756C116.97 25.636 117.162 25.576 117.402 25.576H119.382C119.598 25.576 119.778 25.648 119.922 25.792C120.09 25.912 120.162 26.08 120.138 26.296C120.066 27.712 119.646 29.032 118.878 30.256C118.11 31.48 116.982 32.476 115.494 33.244C114.006 33.988 112.194 34.36 110.058 34.36ZM149.015 34C148.775 34 148.571 33.928 148.403 33.784C148.259 33.616 148.187 33.412 148.187 33.172V9.664C148.187 9.4 148.259 9.196 148.403 9.052C148.571 8.884 148.775 8.8 149.015 8.8H158.879C161.447 8.8 163.379 9.412 164.675 10.636C165.971 11.86 166.619 13.468 166.619 15.46C166.619 16.804 166.307 17.92 165.683 18.808C165.083 19.696 164.363 20.344 163.523 20.752C164.531 21.256 165.383 22.036 166.079 23.092C166.775 24.148 167.123 25.36 167.123 26.728C167.123 28.072 166.811 29.296 166.187 30.4C165.587 31.504 164.687 32.38 163.487 33.028C162.287 33.676 160.847 34 159.167 34H149.015ZM158.339 19.456C159.851 19.456 161.003 19.108 161.795 18.412C162.611 17.716 163.019 16.744 163.019 15.496C163.019 14.272 162.623 13.336 161.831 12.688C161.039 12.04 159.875 11.716 158.339 11.716H151.715V19.456H158.339ZM158.699 31.084C160.211 31.084 161.387 30.676 162.227 29.86C163.091 29.044 163.523 28 163.523 26.728C163.523 25.408 163.091 24.352 162.227 23.56C161.387 22.744 160.211 22.336 158.699 22.336H151.715V31.084H158.699ZM180.262 34C180.022 34 179.818 33.928 179.65 33.784C179.506 33.616 179.434 33.412 179.434 33.172V9.664C179.434 9.4 179.506 9.196 179.65 9.052C179.818 8.884 180.022 8.8 180.262 8.8H195.13C195.37 8.8 195.562 8.884 195.706 9.052C195.874 9.196 195.958 9.4 195.958 9.664V11.032C195.958 11.272 195.886 11.476 195.742 11.644C195.598 11.788 195.394 11.86 195.13 11.86H182.89V19.744H194.338C194.578 19.744 194.77 19.828 194.914 19.996C195.082 20.14 195.166 20.344 195.166 20.608V21.94C195.166 22.18 195.082 22.384 194.914 22.552C194.77 22.696 194.578 22.768 194.338 22.768H182.89V30.94H195.418C195.682 30.94 195.886 31.012 196.03 31.156C196.174 31.3 196.246 31.504 196.246 31.768V33.172C196.246 33.412 196.162 33.616 195.994 33.784C195.85 33.928 195.658 34 195.418 34H180.262ZM209.294 34C209.054 34 208.85 33.928 208.682 33.784C208.538 33.616 208.466 33.412 208.466 33.172V9.664C208.466 9.4 208.538 9.196 208.682 9.052C208.85 8.884 209.054 8.8 209.294 8.8H218.078C220.838 8.8 222.998 9.448 224.558 10.744C226.118 12.04 226.898 13.912 226.898 16.36C226.898 18.184 226.442 19.684 225.53 20.86C224.642 22.036 223.382 22.852 221.75 23.308L227.294 32.884C227.366 33.028 227.402 33.16 227.402 33.28C227.402 33.472 227.318 33.64 227.15 33.784C227.006 33.928 226.838 34 226.646 34H224.918C224.558 34 224.27 33.916 224.054 33.748C223.862 33.58 223.682 33.34 223.514 33.028L218.294 23.884H211.994V33.172C211.994 33.412 211.91 33.616 211.742 33.784C211.574 33.928 211.37 34 211.13 34H209.294ZM217.934 20.824C221.51 20.824 223.298 19.324 223.298 16.324C223.298 13.324 221.51 11.824 217.934 11.824H211.994V20.824H217.934ZM240.083 34C239.843 34 239.639 33.928 239.471 33.784C239.327 33.616 239.255 33.412 239.255 33.172V9.628C239.255 9.388 239.327 9.196 239.471 9.052C239.639 8.884 239.843 8.8 240.083 8.8H241.991C242.231 8.8 242.423 8.884 242.567 9.052C242.735 9.196 242.819 9.388 242.819 9.628V30.868H254.771C255.035 30.868 255.239 30.952 255.383 31.12C255.551 31.264 255.635 31.468 255.635 31.732V33.172C255.635 33.412 255.551 33.616 255.383 33.784C255.215 33.928 255.011 34 254.771 34H240.083ZM267.569 34C267.329 34 267.125 33.928 266.957 33.784C266.813 33.616 266.741 33.412 266.741 33.172V9.628C266.741 9.388 266.813 9.196 266.957 9.052C267.125 8.884 267.329 8.8 267.569 8.8H269.477C269.717 8.8 269.909 8.884 270.053 9.052C270.221 9.196 270.305 9.388 270.305 9.628V33.172C270.305 33.412 270.221 33.616 270.053 33.784C269.909 33.928 269.717 34 269.477 34H267.569ZM284.612 34C284.372 34 284.168 33.928 284 33.784C283.856 33.616 283.784 33.412 283.784 33.172V9.664C283.784 9.4 283.856 9.196 284 9.052C284.168 8.884 284.372 8.8 284.612 8.8H286.268C286.7 8.8 287 8.968 287.168 9.304L299.12 27.664V9.664C299.12 9.4 299.192 9.196 299.336 9.052C299.504 8.884 299.708 8.8 299.948 8.8H301.676C301.94 8.8 302.144 8.884 302.288 9.052C302.456 9.196 302.54 9.4 302.54 9.664V33.136C302.54 33.376 302.456 33.58 302.288 33.748C302.144 33.916 301.952 34 301.712 34H299.984C299.624 34 299.336 33.832 299.12 33.496L287.204 15.316V33.172C287.204 33.412 287.12 33.616 286.952 33.784C286.784 33.928 286.58 34 286.34 34H284.612ZM316.844 34C316.604 34 316.4 33.928 316.232 33.784C316.088 33.616 316.016 33.412 316.016 33.172V9.664C316.016 9.4 316.088 9.196 316.232 9.052C316.4 8.884 316.604 8.8 316.844 8.8H331.712C331.952 8.8 332.144 8.884 332.288 9.052C332.456 9.196 332.54 9.4 332.54 9.664V11.032C332.54 11.272 332.468 11.476 332.324 11.644C332.18 11.788 331.976 11.86 331.712 11.86H319.472V19.744H330.92C331.16 19.744 331.352 19.828 331.496 19.996C331.664 20.14 331.748 20.344 331.748 20.608V21.94C331.748 22.18 331.664 22.384 331.496 22.552C331.352 22.696 331.16 22.768 330.92 22.768H319.472V30.94H332C332.264 30.94 332.468 31.012 332.612 31.156C332.756 31.3 332.828 31.504 332.828 31.768V33.172C332.828 33.412 332.744 33.616 332.576 33.784C332.432 33.928 332.24 34 332 34H316.844ZM345.876 34C345.636 34 345.432 33.928 345.264 33.784C345.12 33.616 345.048 33.412 345.048 33.172V9.664C345.048 9.4 345.12 9.196 345.264 9.052C345.432 8.884 345.636 8.8 345.876 8.8H354.66C357.42 8.8 359.58 9.448 361.14 10.744C362.7 12.04 363.48 13.912 363.48 16.36C363.48 18.184 363.024 19.684 362.112 20.86C361.224 22.036 359.964 22.852 358.332 23.308L363.876 32.884C363.948 33.028 363.984 33.16 363.984 33.28C363.984 33.472 363.9 33.64 363.732 33.784C363.588 33.928 363.42 34 363.228 34H361.5C361.14 34 360.852 33.916 360.636 33.748C360.444 33.58 360.264 33.34 360.096 33.028L354.876 23.884H348.576V33.172C348.576 33.412 348.492 33.616 348.324 33.784C348.156 33.928 347.952 34 347.712 34H345.876ZM354.516 20.824C358.092 20.824 359.88 19.324 359.88 16.324C359.88 13.324 358.092 11.824 354.516 11.824H348.576V20.824H354.516Z" fill="white"/>
<path d="M3.348 33.784L2.96837 34.1094L2.9934 34.1386L3.0226 34.1636L3.348 33.784ZM3.348 9.052L3.70155 9.40555L3.70155 9.40555L3.348 9.052ZM6.696 9.376L7.13919 9.14453L7.13025 9.12739L7.12 9.111L6.696 9.376ZM14.292 23.92L13.8488 24.1515L14.2899 24.9961L14.7343 24.1532L14.292 23.92ZM21.96 9.376L22.4023 9.60919L22.4214 9.57296L22.4343 9.53411L21.96 9.376ZM22.248 8.98L21.9574 8.57313L21.9422 8.58396L21.9279 8.59589L22.248 8.98ZM25.236 9.052L24.8564 9.37739L24.8814 9.4066L24.9106 9.43163L25.236 9.052ZM25.236 33.784L25.5614 34.1636L25.576 34.1511L25.5896 34.1376L25.236 33.784ZM22.248 33.784L21.8684 34.1094L21.8934 34.1386L21.9226 34.1636L22.248 33.784ZM22.032 15.46H22.532L21.587 15.232L22.032 15.46ZM16.02 27.196L15.575 26.968L15.5717 26.9745L15.5686 26.981L16.02 27.196ZM12.6 27.196L13.0514 26.981L13.0481 26.9739L13.0445 26.967L12.6 27.196ZM6.552 15.46L6.99645 15.231L6.052 15.46H6.552ZM6.3 33.784L5.94645 33.4304L5.94645 33.4304L6.3 33.784ZM3.96 33.5C3.82846 33.5 3.74283 33.4639 3.6734 33.4044L3.0226 34.1636C3.28917 34.3921 3.61154 34.5 3.96 34.5V33.5ZM3.72763 33.4586C3.66811 33.3892 3.632 33.3035 3.632 33.172H2.632C2.632 33.5205 2.73989 33.8428 2.96837 34.1094L3.72763 33.4586ZM3.632 33.172V9.664H2.632V33.172H3.632ZM3.632 9.664C3.632 9.4916 3.6768 9.4303 3.70155 9.40555L2.99445 8.69845C2.7312 8.96169 2.632 9.30839 2.632 9.664H3.632ZM3.70155 9.40555C3.77472 9.33238 3.8511 9.3 3.96 9.3V8.3C3.5889 8.3 3.25728 8.43561 2.99445 8.69845L3.70155 9.40555ZM3.96 9.3H5.76V8.3H3.96V9.3ZM5.76 9.3C5.93832 9.3 6.10422 9.37254 6.272 9.641L7.12 9.111C6.80778 8.61145 6.34968 8.3 5.76 8.3V9.3ZM6.25281 9.60747L13.8488 24.1515L14.7352 23.6885L7.13919 9.14453L6.25281 9.60747ZM14.7343 24.1532L22.4023 9.60919L21.5177 9.14281L13.8497 23.6868L14.7343 24.1532ZM22.4343 9.53411C22.4467 9.49694 22.4788 9.43854 22.5681 9.36411L21.9279 8.59589C21.7292 8.76145 21.5693 8.96706 21.4857 9.21788L22.4343 9.53411ZM22.5386 9.38686C22.6086 9.33686 22.7067 9.3 22.86 9.3V8.3C22.5333 8.3 22.2234 8.38313 21.9574 8.57313L22.5386 9.38686ZM22.86 9.3H24.624V8.3H22.86V9.3ZM24.624 9.3C24.773 9.3 24.8258 9.34177 24.8564 9.37739L25.6156 8.7266C25.3582 8.42623 25.003 8.3 24.624 8.3V9.3ZM24.9106 9.43163C24.9462 9.46216 24.988 9.51496 24.988 9.664H25.988C25.988 9.28504 25.8618 8.92984 25.5614 8.67237L24.9106 9.43163ZM24.988 9.664V33.172H25.988V9.664H24.988ZM24.988 33.172C24.988 33.2809 24.9556 33.3573 24.8824 33.4304L25.5896 34.1376C25.8524 33.8747 25.988 33.5431 25.988 33.172H24.988ZM24.9106 33.4044C24.8412 33.4639 24.7555 33.5 24.624 33.5V34.5C24.9725 34.5 25.2948 34.3921 25.5614 34.1636L24.9106 33.4044ZM24.624 33.5H22.86V34.5H24.624V33.5ZM22.86 33.5C22.7285 33.5 22.6428 33.4639 22.5734 33.4044L21.9226 34.1636C22.1892 34.3921 22.5115 34.5 22.86 34.5V33.5ZM22.6276 33.4586C22.5681 33.3892 22.532 33.3035 22.532 33.172H21.532C21.532 33.5205 21.6399 33.8428 21.8684 34.1094L22.6276 33.4586ZM22.532 33.172V15.46H21.532V33.172H22.532ZM21.587 15.232L15.575 26.968L16.465 27.424L22.477 15.688L21.587 15.232ZM15.5686 26.981C15.4794 27.1682 15.3782 27.279 15.2777 27.345C15.1788 27.4098 15.0495 27.452 14.868 27.452V28.452C15.2145 28.452 15.5412 28.3682 15.8263 28.181C16.1098 27.995 16.3206 27.7278 16.4714 27.411L15.5686 26.981ZM14.868 27.452H13.752V28.452H14.868V27.452ZM13.752 27.452C13.5705 27.452 13.4412 27.4098 13.3423 27.345C13.2418 27.279 13.1406 27.1682 13.0514 26.981L12.1486 27.411C12.2994 27.7278 12.5102 27.995 12.7937 28.181C13.0788 28.3682 13.4055 28.452 13.752 28.452V27.452ZM13.0445 26.967L6.99645 15.231L6.10755 15.689L12.1555 27.425L13.0445 26.967ZM6.052 15.46V33.172H7.052V15.46H6.052ZM6.052 33.172C6.052 33.2809 6.01961 33.3573 5.94645 33.4304L6.65355 34.1376C6.91639 33.8747 7.052 33.5431 7.052 33.172H6.052ZM5.94645 33.4304C5.91281 33.4641 5.85687 33.5 5.724 33.5V34.5C6.07113 34.5 6.39919 34.3919 6.65355 34.1376L5.94645 33.4304ZM5.724 33.5H3.96V34.5H5.724V33.5ZM36.718 33.784L36.3645 34.1376L36.3645 34.1376L36.718 33.784ZM36.538 32.884L36.0712 32.705L36.0672 32.7154L36.0637 32.7259L36.538 32.884ZM45.466 9.592L45.933 9.77098L45.9359 9.76287L45.466 9.592ZM50.218 9.592L49.7481 9.76289L49.7509 9.77033L50.218 9.592ZM59.11 32.884L59.602 32.7946L59.5937 32.749L59.5772 32.7057L59.11 32.884ZM59.182 33.28H59.682V33.2349L59.674 33.1906L59.182 33.28ZM58.966 33.784L59.3196 34.1376L59.3196 34.1376L58.966 33.784ZM56.014 33.82L55.6605 34.1736L55.6765 34.1896L55.6939 34.2041L56.014 33.82ZM55.726 33.388L56.2004 33.2299L56.1966 33.2186L56.1923 33.2074L55.726 33.388ZM53.746 28.276L54.2123 28.0954L54.0886 27.776H53.746V28.276ZM41.938 28.276V27.776H41.5955L41.4718 28.0954L41.938 28.276ZM39.958 33.388L39.4918 33.2074L39.4875 33.2186L39.4837 33.2299L39.958 33.388ZM39.634 33.82L39.9542 34.2041L39.9594 34.1996L39.634 33.82ZM52.702 25.18V25.68H53.4271L53.1694 25.0023L52.702 25.18ZM47.842 12.4L48.3094 12.2223L47.842 10.9933L47.3747 12.2223L47.842 12.4ZM42.982 25.18L42.5147 25.0023L42.257 25.68H42.982V25.18ZM37.222 33.5C37.1713 33.5 37.1281 33.487 37.0716 33.4304L36.3645 34.1376C36.5959 34.369 36.8888 34.5 37.222 34.5V33.5ZM37.0716 33.4304C37.015 33.3739 37.002 33.3307 37.002 33.28H36.002C36.002 33.6133 36.133 33.9061 36.3645 34.1376L37.0716 33.4304ZM37.002 33.28C37.002 33.1931 37.0048 33.1282 37.009 33.0823C37.0137 33.0307 37.0183 33.0242 37.0124 33.0421L36.0637 32.7259C36.011 32.8841 36.002 33.0919 36.002 33.28H37.002ZM37.0049 33.063L45.9329 9.77096L44.9992 9.41304L36.0712 32.705L37.0049 33.063ZM45.9359 9.76287C46.0038 9.57618 46.0915 9.47175 46.1813 9.41002C46.2721 9.3476 46.4071 9.3 46.618 9.3V8.3C46.253 8.3 45.908 8.3844 45.6148 8.58598C45.3206 8.78825 45.1202 9.07982 44.9961 9.42113L45.9359 9.76287ZM46.618 9.3H49.066V8.3H46.618V9.3ZM49.066 9.3C49.277 9.3 49.412 9.3476 49.5028 9.41002C49.5926 9.47175 49.6802 9.57618 49.7481 9.76287L50.6879 9.42113C50.5638 9.07982 50.3635 8.78825 50.0693 8.58598C49.7761 8.3844 49.4311 8.3 49.066 8.3V9.3ZM49.7509 9.77033L58.6429 33.0623L59.5772 32.7057L50.6852 9.41367L49.7509 9.77033ZM58.6181 32.9734L58.6901 33.3694L59.674 33.1906L59.602 32.7946L58.6181 32.9734ZM58.682 33.28C58.682 33.3307 58.669 33.3739 58.6125 33.4304L59.3196 34.1376C59.551 33.9061 59.682 33.6133 59.682 33.28H58.682ZM58.6125 33.4304C58.5559 33.487 58.5128 33.5 58.462 33.5V34.5C58.7953 34.5 59.0881 34.369 59.3196 34.1376L58.6125 33.4304ZM58.462 33.5H56.626V34.5H58.462V33.5ZM56.626 33.5C56.4319 33.5 56.3577 33.4555 56.3341 33.4359L55.6939 34.2041C55.9583 34.4245 56.2922 34.5 56.626 34.5V33.5ZM56.3676 33.4664C56.2606 33.3594 56.2169 33.2795 56.2004 33.2299L55.2517 33.5461C55.3312 33.7845 55.4795 33.9926 55.6605 34.1736L56.3676 33.4664ZM56.1923 33.2074L54.2123 28.0954L53.2798 28.4566L55.2598 33.5686L56.1923 33.2074ZM53.746 27.776H41.938V28.776H53.746V27.776ZM41.4718 28.0954L39.4918 33.2074L40.4243 33.5686L42.4043 28.4566L41.4718 28.0954ZM39.4837 33.2299C39.4746 33.2573 39.4374 33.33 39.3086 33.4404L39.9594 34.1996C40.1667 34.022 40.3455 33.8067 40.4324 33.5461L39.4837 33.2299ZM39.3139 33.4359C39.2825 33.4621 39.2145 33.5 39.058 33.5V34.5C39.3815 34.5 39.6975 34.4179 39.9541 34.2041L39.3139 33.4359ZM39.058 33.5H37.222V34.5H39.058V33.5ZM53.1694 25.0023L48.3094 12.2223L47.3747 12.5777L52.2347 25.3577L53.1694 25.0023ZM47.3747 12.2223L42.5147 25.0023L43.4494 25.3577L48.3094 12.5777L47.3747 12.2223ZM42.982 25.68H52.702V24.68H42.982V25.68ZM70.4472 33.784L70.0676 34.1094L70.0926 34.1386L70.1218 34.1636L70.4472 33.784ZM70.4472 9.052L70.8008 9.40555L70.8008 9.40555L70.4472 9.052ZM86.3232 10.744L86.6427 10.3594L86.6427 10.3594L86.3232 10.744ZM87.2952 20.86L86.9001 20.5536L86.8962 20.5587L87.2952 20.86ZM83.5152 23.308L83.3807 22.8264L82.7592 23.0001L83.0825 23.5585L83.5152 23.308ZM89.0592 32.884L89.5064 32.6604L89.4996 32.6467L89.4919 32.6335L89.0592 32.884ZM88.9152 33.784L88.5898 33.4044L88.5752 33.4169L88.5617 33.4304L88.9152 33.784ZM85.8192 33.748L85.49 34.1243L85.5008 34.1338L85.5123 34.1427L85.8192 33.748ZM85.2792 33.028L85.7196 32.7909L85.7134 32.7801L85.2792 33.028ZM80.0592 23.884L80.4934 23.6361L80.3495 23.384H80.0592V23.884ZM73.7592 23.884V23.384H73.2592V23.884H73.7592ZM73.5072 33.784L73.8326 34.1636L73.8472 34.1511L73.8608 34.1376L73.5072 33.784ZM73.7592 11.824V11.324H73.2592V11.824H73.7592ZM73.7592 20.824H73.2592V21.324H73.7592V20.824ZM71.0592 33.5C70.9277 33.5 70.8421 33.4639 70.7726 33.4044L70.1218 34.1636C70.3884 34.3921 70.7108 34.5 71.0592 34.5V33.5ZM70.8268 33.4586C70.7673 33.3892 70.7312 33.3035 70.7312 33.172H69.7312C69.7312 33.5205 69.8391 33.8428 70.0676 34.1094L70.8268 33.4586ZM70.7312 33.172V9.664H69.7312V33.172H70.7312ZM70.7312 9.664C70.7312 9.4916 70.776 9.4303 70.8008 9.40555L70.0937 8.69845C69.8304 8.96169 69.7312 9.30839 69.7312 9.664H70.7312ZM70.8008 9.40555C70.8739 9.33238 70.9503 9.3 71.0592 9.3V8.3C70.6881 8.3 70.3565 8.43561 70.0937 8.69845L70.8008 9.40555ZM71.0592 9.3H79.8432V8.3H71.0592V9.3ZM79.8432 9.3C82.5286 9.3 84.5612 9.93024 86.0037 11.1286L86.6427 10.3594C84.9652 8.96576 82.6779 8.3 79.8432 8.3V9.3ZM86.0037 11.1286C87.4256 12.3099 88.1632 14.0267 88.1632 16.36H89.1632C89.1632 13.7973 88.3408 11.7701 86.6427 10.3594L86.0037 11.1286ZM88.1632 16.36C88.1632 18.0987 87.7299 19.4836 86.9001 20.5536L87.6903 21.1664C88.6845 19.8844 89.1632 18.2693 89.1632 16.36H88.1632ZM86.8962 20.5587C86.0839 21.6345 84.9237 22.3953 83.3807 22.8264L83.6498 23.7896C85.3708 23.3087 86.7306 22.4375 87.6942 21.1613L86.8962 20.5587ZM83.0825 23.5585L88.6265 33.1345L89.4919 32.6335L83.9479 23.0575L83.0825 23.5585ZM88.612 33.1076C88.6606 33.2048 88.6672 33.2595 88.6672 33.28H89.6672C89.6672 33.0605 89.6018 32.8512 89.5064 32.6604L88.612 33.1076ZM88.6672 33.28C88.6672 33.303 88.6658 33.3393 88.5898 33.4044L89.2406 34.1636C89.5007 33.9407 89.6672 33.641 89.6672 33.28H88.6672ZM88.5617 33.4304C88.5051 33.487 88.4619 33.5 88.4112 33.5V34.5C88.7445 34.5 89.0373 34.369 89.2688 34.1376L88.5617 33.4304ZM88.4112 33.5H86.6832V34.5H88.4112V33.5ZM86.6832 33.5C86.3992 33.5 86.2302 33.4342 86.1262 33.3533L85.5123 34.1427C85.8402 34.3978 86.2472 34.5 86.6832 34.5V33.5ZM86.1485 33.3717C86.0153 33.2552 85.8693 33.0693 85.7195 32.7909L84.839 33.2651C85.0251 33.6107 85.2391 33.9048 85.49 34.1243L86.1485 33.3717ZM85.7134 32.7801L80.4934 23.6361L79.625 24.1319L84.845 33.2759L85.7134 32.7801ZM80.0592 23.384H73.7592V24.384H80.0592V23.384ZM73.2592 23.884V33.172H74.2592V23.884H73.2592ZM73.2592 33.172C73.2592 33.2809 73.2268 33.3573 73.1537 33.4304L73.8608 34.1376C74.1236 33.8747 74.2592 33.5431 74.2592 33.172H73.2592ZM73.1818 33.4044C73.1124 33.4639 73.0268 33.5 72.8952 33.5V34.5C73.2437 34.5 73.5661 34.3921 73.8326 34.1636L73.1818 33.4044ZM72.8952 33.5H71.0592V34.5H72.8952V33.5ZM79.6992 21.324C81.545 21.324 83.0224 20.9387 84.0436 20.0821C85.0815 19.2113 85.5632 17.9264 85.5632 16.324H84.5632C84.5632 17.7216 84.1509 18.6867 83.4009 19.3159C82.634 19.9593 81.4295 20.324 79.6992 20.324V21.324ZM85.5632 16.324C85.5632 14.7216 85.0815 13.4367 84.0436 12.5659C83.0224 11.7093 81.545 11.324 79.6992 11.324V12.324C81.4295 12.324 82.634 12.6887 83.4009 13.3321C84.1509 13.9613 84.5632 14.9264 84.5632 16.324H85.5632ZM79.6992 11.324H73.7592V12.324H79.6992V11.324ZM73.2592 11.824V20.824H74.2592V11.824H73.2592ZM73.7592 21.324H79.6992V20.324H73.7592V21.324ZM102.714 31.768L102.353 32.114L102.355 32.1165L102.714 31.768ZM100.05 24.604L99.5502 24.6225L99.5503 24.6237L100.05 24.604ZM100.05 18.196L99.5503 18.1762L99.5502 18.1782L100.05 18.196ZM102.75 11.068L103.108 11.4165L103.111 11.4141L102.75 11.068ZM115.494 9.592L115.265 10.0363L115.27 10.0392L115.494 9.592ZM120.138 16.468H120.638V16.4551L120.637 16.4422L120.138 16.468ZM119.886 17.044L120.206 17.4281L120.211 17.4236L119.886 17.044ZM116.502 16.396L116.991 16.2898L116.99 16.2855L116.502 16.396ZM114.306 12.616L114.018 13.0248L114.024 13.0291L114.306 12.616ZM103.65 18.376L104.15 18.3945L104.15 18.3917L103.65 18.376ZM103.65 24.424L104.15 24.4083L104.15 24.4068L103.65 24.424ZM114.306 30.22L114.588 30.6331L114.59 30.6318L114.306 30.22ZM116.502 26.404L116.015 26.2916L116.013 26.2997L116.502 26.404ZM116.826 25.756L116.506 25.3719L116.506 25.3719L116.826 25.756ZM119.922 25.792L119.568 26.1456L119.598 26.1748L119.631 26.1989L119.922 25.792ZM120.138 26.296L119.641 26.2408L119.639 26.2557L119.639 26.2706L120.138 26.296ZM115.494 33.244L115.718 33.6913L115.723 33.6883L115.494 33.244ZM110.058 33.86C106.93 33.86 104.63 33.0215 103.072 31.4195L102.355 32.1165C104.158 33.9705 106.754 34.86 110.058 34.86V33.86ZM103.075 31.422C101.525 29.8043 100.666 27.5448 100.55 24.5843L99.5503 24.6237C99.6737 27.7592 100.591 30.2757 102.353 32.114L103.075 31.422ZM100.55 24.5855C100.526 23.9475 100.514 22.8995 100.514 21.436H99.5139C99.5139 22.9005 99.5259 23.9645 99.5502 24.6225L100.55 24.5855ZM100.514 21.436C100.514 19.9486 100.526 18.8763 100.55 18.2138L99.5502 18.1782C99.5259 18.8597 99.5139 19.9474 99.5139 21.436H100.514ZM100.55 18.2158C100.666 15.2823 101.535 13.0352 103.108 11.4165L102.391 10.7195C100.605 12.5568 99.6739 15.0617 99.5503 18.1762L100.55 18.2158ZM103.111 11.4141C104.669 9.78865 106.957 8.94 110.058 8.94V7.94C106.775 7.94 104.19 8.84334 102.389 10.7219L103.111 11.4141ZM110.058 8.94C112.136 8.94 113.864 9.31359 115.265 10.0363L115.723 9.14769C114.147 8.3344 112.252 7.94 110.058 7.94V8.94ZM115.27 10.0392C116.689 10.7485 117.742 11.6746 118.454 12.8097L119.301 12.2783C118.478 10.9654 117.275 9.92348 115.718 9.14479L115.27 10.0392ZM118.454 12.8097C119.179 13.9643 119.571 15.1901 119.639 16.4938L120.637 16.4422C120.561 14.9619 120.113 13.5717 119.301 12.2783L118.454 12.8097ZM119.638 16.468V16.54H120.638V16.468H119.638ZM119.638 16.54C119.638 16.563 119.636 16.5993 119.561 16.6644L120.211 17.4236C120.471 17.2007 120.638 16.901 120.638 16.54H119.638ZM119.566 16.6599C119.514 16.703 119.46 16.724 119.382 16.724V17.724C119.688 17.724 119.97 17.625 120.206 17.4281L119.566 16.6599ZM119.382 16.724H117.402V17.724H119.382V16.724ZM117.402 16.724C117.264 16.724 117.197 16.6874 117.155 16.649C117.105 16.603 117.037 16.5029 116.99 16.2898L116.013 16.5022C116.087 16.8411 116.228 17.155 116.478 17.385C116.737 17.6226 117.06 17.724 117.402 17.724V16.724ZM116.99 16.2855C116.566 14.4165 115.786 13.0202 114.588 12.2029L114.024 13.0291C114.937 13.6518 115.622 14.7755 116.014 16.5065L116.99 16.2855ZM114.594 12.2073C113.427 11.3853 111.899 11 110.058 11V12C111.768 12 113.073 12.3587 114.018 13.0247L114.594 12.2073ZM110.058 11C107.901 11 106.184 11.6012 104.994 12.8781C103.813 14.146 103.224 16.0022 103.15 18.3603L104.15 18.3917C104.22 16.1658 104.771 14.584 105.726 13.5599C106.672 12.5448 108.086 12 110.058 12V11ZM103.15 18.3575C103.126 19.0152 103.114 20.0189 103.114 21.364H104.114C104.114 20.0211 104.126 19.0328 104.15 18.3945L103.15 18.3575ZM103.114 21.364C103.114 22.7095 103.126 23.7364 103.15 24.4412L104.15 24.4068C104.126 23.7196 104.114 22.7065 104.114 21.364H103.114ZM103.15 24.4397C103.224 26.7978 103.813 28.654 104.994 29.9219C106.184 31.1988 107.901 31.8 110.058 31.8V30.8C108.086 30.8 106.672 30.2552 105.726 29.2401C104.771 28.216 104.22 26.6342 104.15 24.4083L103.15 24.4397ZM110.058 31.8C111.896 31.8 113.422 31.4279 114.588 30.6331L114.024 29.8069C113.078 30.4521 111.771 30.8 110.058 30.8V31.8ZM114.59 30.6318C115.811 29.7904 116.591 28.3826 116.991 26.5083L116.013 26.2997C115.645 28.0254 114.961 29.1616 114.022 29.8082L114.59 30.6318ZM116.989 26.5164C117.052 26.2429 117.127 26.1559 117.146 26.1401L116.506 25.3719C116.237 25.5961 116.096 25.9411 116.015 26.2916L116.989 26.5164ZM117.146 26.1401C117.177 26.1139 117.245 26.076 117.402 26.076V25.076C117.078 25.076 116.762 25.1581 116.506 25.3719L117.146 26.1401ZM117.402 26.076H119.382V25.076H117.402V26.076ZM119.382 26.076C119.474 26.076 119.524 26.1015 119.568 26.1456L120.275 25.4384C120.032 25.1945 119.722 25.076 119.382 25.076V26.076ZM119.631 26.1989C119.642 26.2065 119.646 26.211 119.646 26.2111C119.646 26.2112 119.645 26.2106 119.645 26.2093C119.644 26.208 119.643 26.2065 119.642 26.205C119.641 26.2015 119.641 26.2008 119.642 26.205C119.642 26.2097 119.643 26.2211 119.641 26.2408L120.635 26.3512C120.678 25.9669 120.537 25.6171 120.213 25.3851L119.631 26.1989ZM119.639 26.2706C119.571 27.5996 119.178 28.8371 118.454 29.9903L119.301 30.5217C120.114 29.2269 120.561 27.8244 120.637 26.3214L119.639 26.2706ZM118.454 29.9903C117.741 31.1271 116.686 32.0661 115.265 32.7997L115.723 33.6883C117.278 32.8859 118.479 31.8329 119.301 30.5217L118.454 29.9903ZM115.27 32.7968C113.869 33.4976 112.138 33.86 110.058 33.86V34.86C112.25 34.86 114.143 34.4784 115.718 33.6912L115.27 32.7968ZM148.403 33.784L148.023 34.1094L148.048 34.1386L148.077 34.1636L148.403 33.784ZM148.403 9.052L148.756 9.40555L148.756 9.40555L148.403 9.052ZM164.675 10.636L164.331 10.9995L164.331 10.9995L164.675 10.636ZM165.683 18.808L165.274 18.5205L165.268 18.5281L165.683 18.808ZM163.523 20.752L163.304 20.3022L162.392 20.7455L163.299 21.1992L163.523 20.752ZM166.079 23.092L166.496 22.8168L166.496 22.8168L166.079 23.092ZM166.187 30.4L165.751 30.1539L165.747 30.1612L166.187 30.4ZM161.795 18.412L161.47 18.0315L161.465 18.0364L161.795 18.412ZM151.715 11.716V11.216H151.215V11.716H151.715ZM151.715 19.456H151.215V19.956H151.715V19.456ZM162.227 29.86L161.883 29.4965L161.878 29.5014L162.227 29.86ZM162.227 23.56L161.878 23.9186L161.883 23.9237L161.889 23.9286L162.227 23.56ZM151.715 22.336V21.836H151.215V22.336H151.715ZM151.715 31.084H151.215V31.584H151.715V31.084ZM149.015 33.5C148.883 33.5 148.798 33.4639 148.728 33.4044L148.077 34.1636C148.344 34.3921 148.666 34.5 149.015 34.5V33.5ZM148.782 33.4586C148.723 33.3892 148.687 33.3035 148.687 33.172H147.687C147.687 33.5205 147.795 33.8428 148.023 34.1094L148.782 33.4586ZM148.687 33.172V9.664H147.687V33.172H148.687ZM148.687 9.664C148.687 9.4916 148.731 9.4303 148.756 9.40555L148.049 8.69845C147.786 8.96169 147.687 9.30839 147.687 9.664H148.687ZM148.756 9.40555C148.829 9.33238 148.906 9.3 149.015 9.3V8.3C148.644 8.3 148.312 8.43561 148.049 8.69845L148.756 9.40555ZM149.015 9.3H158.879V8.3H149.015V9.3ZM158.879 9.3C161.375 9.3 163.162 9.89525 164.331 10.9995L165.018 10.2725C163.595 8.92875 161.518 8.3 158.879 8.3V9.3ZM164.331 10.9995C165.515 12.1175 166.119 13.5877 166.119 15.46H167.119C167.119 13.3483 166.426 11.6025 165.018 10.2725L164.331 10.9995ZM166.119 15.46C166.119 16.7259 165.826 17.7349 165.274 18.5205L166.092 19.0955C166.788 18.1051 167.119 16.8821 167.119 15.46H166.119ZM165.268 18.5281C164.71 19.3541 164.054 19.938 163.304 20.3022L163.741 21.2018C164.671 20.75 165.455 20.0379 166.097 19.0879L165.268 18.5281ZM163.299 21.1992C164.219 21.6593 165.008 22.3754 165.661 23.3672L166.496 22.8168C165.758 21.6966 164.842 20.8527 163.746 20.3048L163.299 21.1992ZM165.661 23.3672C166.299 24.3348 166.623 25.4495 166.623 26.728H167.623C167.623 25.2705 167.25 23.9612 166.496 22.8168L165.661 23.3672ZM166.623 26.728C166.623 27.9911 166.33 29.1295 165.751 30.154L166.622 30.646C167.291 29.4625 167.623 28.1529 167.623 26.728H166.623ZM165.747 30.1612C165.198 31.1727 164.371 31.982 163.249 32.588L163.724 33.468C165.002 32.778 165.976 31.8353 166.626 30.6388L165.747 30.1612ZM163.249 32.588C162.137 33.1885 160.783 33.5 159.167 33.5V34.5C160.911 34.5 162.436 34.1635 163.724 33.468L163.249 32.588ZM159.167 33.5H149.015V34.5H159.167V33.5ZM158.339 19.956C159.92 19.956 161.209 19.5925 162.125 18.7876L161.465 18.0364C160.797 18.6235 159.781 18.956 158.339 18.956V19.956ZM162.119 18.7924C163.065 17.9854 163.519 16.8638 163.519 15.496H162.519C162.519 16.6242 162.156 17.4466 161.47 18.0316L162.119 18.7924ZM163.519 15.496C163.519 14.1546 163.078 13.0629 162.147 12.301L161.514 13.075C162.167 13.6091 162.519 14.3894 162.519 15.496H163.519ZM162.147 12.301C161.231 11.5512 159.935 11.216 158.339 11.216V12.216C159.815 12.216 160.847 12.5288 161.514 13.075L162.147 12.301ZM158.339 11.216H151.715V12.216H158.339V11.216ZM151.215 11.716V19.456H152.215V11.716H151.215ZM151.715 19.956H158.339V18.956H151.715V19.956ZM158.699 31.584C160.301 31.584 161.617 31.1495 162.575 30.2186L161.878 29.5014C161.156 30.2025 160.12 30.584 158.699 30.584V31.584ZM162.57 30.2235C163.542 29.3059 164.023 28.1268 164.023 26.728H163.023C163.023 27.8732 162.64 28.7821 161.883 29.4965L162.57 30.2235ZM164.023 26.728C164.023 25.2874 163.545 24.0906 162.565 23.1914L161.889 23.9286C162.636 24.6134 163.023 25.5286 163.023 26.728H164.023ZM162.575 23.2014C161.617 22.2705 160.301 21.836 158.699 21.836V22.836C160.12 22.836 161.156 23.2175 161.878 23.9186L162.575 23.2014ZM158.699 21.836H151.715V22.836H158.699V21.836ZM151.215 22.336V31.084H152.215V22.336H151.215ZM151.715 31.584H158.699V30.584H151.715V31.584ZM179.65 33.784L179.27 34.1094L179.295 34.1386L179.324 34.1636L179.65 33.784ZM179.65 9.052L180.003 9.40555L180.003 9.40555L179.65 9.052ZM195.706 9.052L195.326 9.37739L195.351 9.4066L195.38 9.43163L195.706 9.052ZM195.742 11.644L196.095 11.9975L196.109 11.984L196.121 11.9694L195.742 11.644ZM182.89 11.86V11.36H182.39V11.86H182.89ZM182.89 19.744H182.39V20.244H182.89V19.744ZM194.914 19.996L194.534 20.3214L194.559 20.3506L194.588 20.3756L194.914 19.996ZM194.914 22.552L194.56 22.1984L194.56 22.1984L194.914 22.552ZM182.89 22.768V22.268H182.39V22.768H182.89ZM182.89 30.94H182.39V31.44H182.89V30.94ZM195.994 33.784L196.347 34.1376L196.347 34.1376L195.994 33.784ZM180.262 33.5C180.13 33.5 180.044 33.4639 179.975 33.4044L179.324 34.1636C179.591 34.3921 179.913 34.5 180.262 34.5V33.5ZM180.029 33.4586C179.97 33.3892 179.934 33.3035 179.934 33.172H178.934C178.934 33.5205 179.041 33.8428 179.27 34.1094L180.029 33.4586ZM179.934 33.172V9.664H178.934V33.172H179.934ZM179.934 9.664C179.934 9.4916 179.978 9.4303 180.003 9.40555L179.296 8.69845C179.033 8.96169 178.934 9.30839 178.934 9.664H179.934ZM180.003 9.40555C180.076 9.33238 180.153 9.3 180.262 9.3V8.3C179.89 8.3 179.559 8.43561 179.296 8.69845L180.003 9.40555ZM180.262 9.3H195.13V8.3H180.262V9.3ZM195.13 9.3C195.238 9.3 195.286 9.33041 195.326 9.37739L196.085 8.7266C195.837 8.43759 195.502 8.3 195.13 8.3V9.3ZM195.38 9.43163C195.416 9.46216 195.458 9.51496 195.458 9.664H196.458C196.458 9.28504 196.331 8.92984 196.031 8.67237L195.38 9.43163ZM195.458 9.664V11.032H196.458V9.664H195.458ZM195.458 11.032C195.458 11.1635 195.421 11.2492 195.362 11.3186L196.121 11.9694C196.35 11.7028 196.458 11.3805 196.458 11.032H195.458ZM195.388 11.2904C195.363 11.3152 195.302 11.36 195.13 11.36V12.36C195.485 12.36 195.832 12.2608 196.095 11.9975L195.388 11.2904ZM195.13 11.36H182.89V12.36H195.13V11.36ZM182.39 11.86V19.744H183.39V11.86H182.39ZM182.89 20.244H194.338V19.244H182.89V20.244ZM194.338 20.244C194.446 20.244 194.494 20.2744 194.534 20.3214L195.293 19.6706C195.045 19.3816 194.71 19.244 194.338 19.244V20.244ZM194.588 20.3756C194.624 20.4062 194.666 20.459 194.666 20.608H195.666C195.666 20.229 195.539 19.8738 195.239 19.6164L194.588 20.3756ZM194.666 20.608V21.94H195.666V20.608H194.666ZM194.666 21.94C194.666 22.0489 194.633 22.1253 194.56 22.1984L195.267 22.9056C195.53 22.6427 195.666 22.3111 195.666 21.94H194.666ZM194.56 22.1984C194.526 22.2321 194.47 22.268 194.338 22.268V23.268C194.685 23.268 195.013 23.1599 195.267 22.9056L194.56 22.1984ZM194.338 22.268H182.89V23.268H194.338V22.268ZM182.39 22.768V30.94H183.39V22.768H182.39ZM182.89 31.44H195.418V30.44H182.89V31.44ZM195.418 31.44C195.59 31.44 195.651 31.4848 195.676 31.5096L196.383 30.8024C196.12 30.5392 195.773 30.44 195.418 30.44V31.44ZM195.676 31.5096C195.701 31.5343 195.746 31.5956 195.746 31.768H196.746C196.746 31.4124 196.646 31.0657 196.383 30.8024L195.676 31.5096ZM195.746 31.768V33.172H196.746V31.768H195.746ZM195.746 33.172C195.746 33.2809 195.713 33.3573 195.64 33.4304L196.347 34.1376C196.61 33.8747 196.746 33.5431 196.746 33.172H195.746ZM195.64 33.4304C195.606 33.4641 195.55 33.5 195.418 33.5V34.5C195.765 34.5 196.093 34.3919 196.347 34.1376L195.64 33.4304ZM195.418 33.5H180.262V34.5H195.418V33.5ZM208.682 33.784L208.302 34.1094L208.327 34.1386L208.356 34.1636L208.682 33.784ZM208.682 9.052L209.035 9.40555L209.035 9.40555L208.682 9.052ZM224.558 10.744L224.877 10.3594L224.877 10.3594L224.558 10.744ZM225.53 20.86L225.134 20.5536L225.131 20.5587L225.53 20.86ZM221.75 23.308L221.615 22.8264L220.994 23.0001L221.317 23.5585L221.75 23.308ZM227.294 32.884L227.741 32.6604L227.734 32.6467L227.726 32.6335L227.294 32.884ZM227.15 33.784L226.824 33.4044L226.81 33.4169L226.796 33.4304L227.15 33.784ZM224.054 33.748L223.724 34.1243L223.735 34.1338L223.747 34.1427L224.054 33.748ZM223.514 33.028L223.954 32.7909L223.948 32.7801L223.514 33.028ZM218.294 23.884L218.728 23.6361L218.584 23.384H218.294V23.884ZM211.994 23.884V23.384H211.494V23.884H211.994ZM211.742 33.784L212.067 34.1636L212.082 34.1511L212.095 34.1376L211.742 33.784ZM211.994 11.824V11.324H211.494V11.824H211.994ZM211.994 20.824H211.494V21.324H211.994V20.824ZM209.294 33.5C209.162 33.5 209.076 33.4639 209.007 33.4044L208.356 34.1636C208.623 34.3921 208.945 34.5 209.294 34.5V33.5ZM209.061 33.4586C209.002 33.3892 208.966 33.3035 208.966 33.172H207.966C207.966 33.5205 208.073 33.8428 208.302 34.1094L209.061 33.4586ZM208.966 33.172V9.664H207.966V33.172H208.966ZM208.966 9.664C208.966 9.4916 209.01 9.4303 209.035 9.40555L208.328 8.69845C208.065 8.96169 207.966 9.30839 207.966 9.664H208.966ZM209.035 9.40555C209.108 9.33238 209.185 9.3 209.294 9.3V8.3C208.922 8.3 208.591 8.43561 208.328 8.69845L209.035 9.40555ZM209.294 9.3H218.078V8.3H209.294V9.3ZM218.078 9.3C220.763 9.3 222.796 9.93024 224.238 11.1286L224.877 10.3594C223.2 8.96576 220.912 8.3 218.078 8.3V9.3ZM224.238 11.1286C225.66 12.3099 226.398 14.0267 226.398 16.36H227.398C227.398 13.7973 226.575 11.7701 224.877 10.3594L224.238 11.1286ZM226.398 16.36C226.398 18.0987 225.964 19.4836 225.134 20.5536L225.925 21.1664C226.919 19.8844 227.398 18.2693 227.398 16.36H226.398ZM225.131 20.5587C224.318 21.6345 223.158 22.3953 221.615 22.8264L221.884 23.7896C223.605 23.3087 224.965 22.4375 225.929 21.1613L225.131 20.5587ZM221.317 23.5585L226.861 33.1345L227.726 32.6335L222.182 23.0575L221.317 23.5585ZM226.846 33.1076C226.895 33.2048 226.902 33.2595 226.902 33.28H227.902C227.902 33.0605 227.836 32.8512 227.741 32.6604L226.846 33.1076ZM226.902 33.28C226.902 33.303 226.9 33.3393 226.824 33.4044L227.475 34.1636C227.735 33.9407 227.902 33.641 227.902 33.28H226.902ZM226.796 33.4304C226.739 33.487 226.696 33.5 226.646 33.5V34.5C226.979 34.5 227.272 34.369 227.503 34.1376L226.796 33.4304ZM226.646 33.5H224.918V34.5H226.646V33.5ZM224.918 33.5C224.634 33.5 224.465 33.4342 224.361 33.3533L223.747 34.1427C224.075 34.3978 224.482 34.5 224.918 34.5V33.5ZM224.383 33.3717C224.25 33.2552 224.104 33.0693 223.954 32.7909L223.073 33.2651C223.259 33.6107 223.474 33.9048 223.724 34.1243L224.383 33.3717ZM223.948 32.7801L218.728 23.6361L217.859 24.1319L223.079 33.2759L223.948 32.7801ZM218.294 23.384H211.994V24.384H218.294V23.384ZM211.494 23.884V33.172H212.494V23.884H211.494ZM211.494 33.172C211.494 33.2809 211.461 33.3573 211.388 33.4304L212.095 34.1376C212.358 33.8747 212.494 33.5431 212.494 33.172H211.494ZM211.416 33.4044C211.347 33.4639 211.261 33.5 211.13 33.5V34.5C211.478 34.5 211.8 34.3921 212.067 34.1636L211.416 33.4044ZM211.13 33.5H209.294V34.5H211.13V33.5ZM217.934 21.324C219.779 21.324 221.257 20.9387 222.278 20.0821C223.316 19.2113 223.798 17.9264 223.798 16.324H222.798C222.798 17.7216 222.385 18.6867 221.635 19.3159C220.868 19.9593 219.664 20.324 217.934 20.324V21.324ZM223.798 16.324C223.798 14.7216 223.316 13.4367 222.278 12.5659C221.257 11.7093 219.779 11.324 217.934 11.324V12.324C219.664 12.324 220.868 12.6887 221.635 13.3321C222.385 13.9613 222.798 14.9264 222.798 16.324H223.798ZM217.934 11.324H211.994V12.324H217.934V11.324ZM211.494 11.824V20.824H212.494V11.824H211.494ZM211.994 21.324H217.934V20.324H211.994V21.324ZM239.471 33.784L239.092 34.1094L239.117 34.1386L239.146 34.1636L239.471 33.784ZM239.471 9.052L239.825 9.40555L239.825 9.40555L239.471 9.052ZM242.567 9.052L242.188 9.37739L242.213 9.4066L242.242 9.43163L242.567 9.052ZM242.819 30.868H242.319V31.368H242.819V30.868ZM255.383 31.12L255.004 31.4454L255.029 31.4746L255.058 31.4996L255.383 31.12ZM255.383 33.784L255.709 34.1636L255.723 34.1511L255.737 34.1376L255.383 33.784ZM240.083 33.5C239.952 33.5 239.866 33.4639 239.797 33.4044L239.146 34.1636C239.413 34.3921 239.735 34.5 240.083 34.5V33.5ZM239.851 33.4586C239.792 33.3892 239.755 33.3035 239.755 33.172H238.755C238.755 33.5205 238.863 33.8428 239.092 34.1094L239.851 33.4586ZM239.755 33.172V9.628H238.755V33.172H239.755ZM239.755 9.628C239.755 9.49513 239.791 9.43918 239.825 9.40555L239.118 8.69845C238.864 8.95281 238.755 9.28087 238.755 9.628H239.755ZM239.825 9.40555C239.898 9.33238 239.975 9.3 240.083 9.3V8.3C239.712 8.3 239.381 8.43561 239.118 8.69845L239.825 9.40555ZM240.083 9.3H241.991V8.3H240.083V9.3ZM241.991 9.3C242.099 9.3 242.148 9.33041 242.188 9.37739L242.947 8.7266C242.699 8.43759 242.363 8.3 241.991 8.3V9.3ZM242.242 9.43163C242.289 9.4719 242.319 9.51998 242.319 9.628H243.319C243.319 9.25602 243.182 8.9201 242.893 8.67237L242.242 9.43163ZM242.319 9.628V30.868H243.319V9.628H242.319ZM242.819 31.368H254.771V30.368H242.819V31.368ZM254.771 31.368C254.92 31.368 254.973 31.4098 255.004 31.4454L255.763 30.7946C255.506 30.4942 255.15 30.368 254.771 30.368V31.368ZM255.058 31.4996C255.094 31.5302 255.135 31.583 255.135 31.732H256.135C256.135 31.353 256.009 30.9978 255.709 30.7404L255.058 31.4996ZM255.135 31.732V33.172H256.135V31.732H255.135ZM255.135 33.172C255.135 33.2809 255.103 33.3573 255.03 33.4304L255.737 34.1376C256 33.8747 256.135 33.5431 256.135 33.172H255.135ZM255.058 33.4044C254.989 33.4639 254.903 33.5 254.771 33.5V34.5C255.12 34.5 255.442 34.3921 255.709 34.1636L255.058 33.4044ZM254.771 33.5H240.083V34.5H254.771V33.5ZM266.957 33.784L266.577 34.1094L266.602 34.1386L266.631 34.1636L266.957 33.784ZM266.957 9.052L267.31 9.40555L267.31 9.40555L266.957 9.052ZM270.053 9.052L269.673 9.37739L269.698 9.4066L269.727 9.43163L270.053 9.052ZM270.053 33.784L269.699 33.4304L269.699 33.4304L270.053 33.784ZM267.569 33.5C267.437 33.5 267.351 33.4639 267.282 33.4044L266.631 34.1636C266.898 34.3921 267.22 34.5 267.569 34.5V33.5ZM267.336 33.4586C267.277 33.3892 267.241 33.3035 267.241 33.172H266.241C266.241 33.5205 266.348 33.8428 266.577 34.1094L267.336 33.4586ZM267.241 33.172V9.628H266.241V33.172H267.241ZM267.241 9.628C267.241 9.49513 267.277 9.43918 267.31 9.40555L266.603 8.69845C266.349 8.95281 266.241 9.28087 266.241 9.628H267.241ZM267.31 9.40555C267.383 9.33238 267.46 9.3 267.569 9.3V8.3C267.197 8.3 266.866 8.43561 266.603 8.69845L267.31 9.40555ZM267.569 9.3H269.477V8.3H267.569V9.3ZM269.477 9.3C269.585 9.3 269.633 9.33041 269.673 9.37739L270.432 8.7266C270.184 8.43759 269.849 8.3 269.477 8.3V9.3ZM269.727 9.43163C269.774 9.4719 269.805 9.51998 269.805 9.628H270.805C270.805 9.25602 270.667 8.9201 270.378 8.67237L269.727 9.43163ZM269.805 9.628V33.172H270.805V9.628H269.805ZM269.805 33.172C269.805 33.2809 269.772 33.3573 269.699 33.4304L270.406 34.1376C270.669 33.8747 270.805 33.5431 270.805 33.172H269.805ZM269.699 33.4304C269.665 33.4641 269.609 33.5 269.477 33.5V34.5C269.824 34.5 270.152 34.3919 270.406 34.1376L269.699 33.4304ZM269.477 33.5H267.569V34.5H269.477V33.5ZM284 33.784L283.621 34.1094L283.646 34.1386L283.675 34.1636L284 33.784ZM284 9.052L284.354 9.40555L284.354 9.40555L284 9.052ZM287.168 9.304L286.721 9.52761L286.734 9.55299L286.749 9.57678L287.168 9.304ZM299.12 27.664L298.701 27.9368L299.62 29.3486V27.664H299.12ZM299.336 9.052L299.69 9.40555L299.69 9.40555L299.336 9.052ZM302.288 9.052L301.909 9.37739L301.934 9.4066L301.963 9.43163L302.288 9.052ZM302.288 33.748L301.935 33.3944L301.921 33.408L301.909 33.4226L302.288 33.748ZM299.12 33.496L299.541 33.2256L299.539 33.2219L299.12 33.496ZM287.204 15.316L287.623 15.0419L286.704 13.6411V15.316H287.204ZM286.952 33.784L287.278 34.1636L287.292 34.1511L287.306 34.1376L286.952 33.784ZM284.612 33.5C284.481 33.5 284.395 33.4639 284.326 33.4044L283.675 34.1636C283.942 34.3921 284.264 34.5 284.612 34.5V33.5ZM284.38 33.4586C284.32 33.3892 284.284 33.3035 284.284 33.172H283.284C283.284 33.5205 283.392 33.8428 283.621 34.1094L284.38 33.4586ZM284.284 33.172V9.664H283.284V33.172H284.284ZM284.284 9.664C284.284 9.4916 284.329 9.4303 284.354 9.40555L283.647 8.69845C283.384 8.96169 283.284 9.30839 283.284 9.664H284.284ZM284.354 9.40555C284.427 9.33238 284.503 9.3 284.612 9.3V8.3C284.241 8.3 283.91 8.43561 283.647 8.69845L284.354 9.40555ZM284.612 9.3H286.268V8.3H284.612V9.3ZM286.268 9.3C286.42 9.3 286.514 9.32946 286.573 9.36225C286.628 9.39277 286.678 9.44054 286.721 9.52761L287.616 9.08039C287.491 8.83145 287.307 8.62723 287.062 8.48975C286.82 8.35454 286.548 8.3 286.268 8.3V9.3ZM286.749 9.57678L298.701 27.9368L299.539 27.3912L287.587 9.03122L286.749 9.57678ZM299.62 27.664V9.664H298.62V27.664H299.62ZM299.62 9.664C299.62 9.4916 299.665 9.4303 299.69 9.40555L298.983 8.69844C298.72 8.96169 298.62 9.30839 298.62 9.664H299.62ZM299.69 9.40555C299.763 9.33238 299.839 9.3 299.948 9.3V8.3C299.577 8.3 299.246 8.43561 298.983 8.69845L299.69 9.40555ZM299.948 9.3H301.676V8.3H299.948V9.3ZM301.676 9.3C301.825 9.3 301.878 9.34177 301.909 9.37739L302.668 8.7266C302.411 8.42623 302.055 8.3 301.676 8.3V9.3ZM301.963 9.43163C301.999 9.46216 302.04 9.51496 302.04 9.664H303.04C303.04 9.28504 302.914 8.92983 302.614 8.67237L301.963 9.43163ZM302.04 9.664V33.136H303.04V9.664H302.04ZM302.04 33.136C302.04 33.2449 302.008 33.3213 301.935 33.3944L302.642 34.1016C302.905 33.8387 303.04 33.5071 303.04 33.136H302.04ZM301.909 33.4226C301.868 33.4696 301.82 33.5 301.712 33.5V34.5C302.084 34.5 302.42 34.3624 302.668 34.0734L301.909 33.4226ZM301.712 33.5H299.984V34.5H301.712V33.5ZM299.984 33.5C299.815 33.5 299.677 33.4371 299.541 33.2256L298.7 33.7664C298.996 34.2269 299.433 34.5 299.984 34.5V33.5ZM299.539 33.2219L287.623 15.0419L286.786 15.5901L298.702 33.7701L299.539 33.2219ZM286.704 15.316V33.172H287.704V15.316H286.704ZM286.704 33.172C286.704 33.2809 286.672 33.3573 286.599 33.4304L287.306 34.1376C287.569 33.8747 287.704 33.5431 287.704 33.172H286.704ZM286.627 33.4044C286.558 33.4639 286.472 33.5 286.34 33.5V34.5C286.689 34.5 287.011 34.3921 287.278 34.1636L286.627 33.4044ZM286.34 33.5H284.612V34.5H286.34V33.5ZM316.232 33.784L315.852 34.1094L315.877 34.1386L315.906 34.1636L316.232 33.784ZM316.232 9.052L316.585 9.40555L316.585 9.40555L316.232 9.052ZM332.288 9.052L331.908 9.37739L331.933 9.4066L331.962 9.43163L332.288 9.052ZM332.324 11.644L332.677 11.9975L332.691 11.984L332.703 11.9694L332.324 11.644ZM319.472 11.86V11.36H318.972V11.86H319.472ZM319.472 19.744H318.972V20.244H319.472V19.744ZM331.496 19.996L331.116 20.3214L331.141 20.3506L331.17 20.3756L331.496 19.996ZM331.496 22.552L331.142 22.1984L331.142 22.1984L331.496 22.552ZM319.472 22.768V22.268H318.972V22.768H319.472ZM319.472 30.94H318.972V31.44H319.472V30.94ZM332.576 33.784L332.929 34.1376L332.929 34.1376L332.576 33.784ZM316.844 33.5C316.712 33.5 316.626 33.4639 316.557 33.4044L315.906 34.1636C316.173 34.3921 316.495 34.5 316.844 34.5V33.5ZM316.611 33.4586C316.552 33.3892 316.516 33.3035 316.516 33.172H315.516C315.516 33.5205 315.623 33.8428 315.852 34.1094L316.611 33.4586ZM316.516 33.172V9.664H315.516V33.172H316.516ZM316.516 9.664C316.516 9.4916 316.56 9.4303 316.585 9.40555L315.878 8.69845C315.615 8.96169 315.516 9.30839 315.516 9.664H316.516ZM316.585 9.40555C316.658 9.33238 316.735 9.3 316.844 9.3V8.3C316.473 8.3 316.141 8.43561 315.878 8.69845L316.585 9.40555ZM316.844 9.3H331.712V8.3H316.844V9.3ZM331.712 9.3C331.82 9.3 331.868 9.33041 331.908 9.37739L332.667 8.7266C332.42 8.43759 332.084 8.3 331.712 8.3V9.3ZM331.962 9.43163C331.998 9.46216 332.04 9.51496 332.04 9.664H333.04C333.04 9.28504 332.913 8.92984 332.613 8.67237L331.962 9.43163ZM332.04 9.664V11.032H333.04V9.664H332.04ZM332.04 11.032C332.04 11.1635 332.003 11.2492 331.944 11.3186L332.703 11.9694C332.932 11.7028 333.04 11.3805 333.04 11.032H332.04ZM331.97 11.2904C331.945 11.3152 331.884 11.36 331.712 11.36V12.36C332.067 12.36 332.414 12.2608 332.677 11.9975L331.97 11.2904ZM331.712 11.36H319.472V12.36H331.712V11.36ZM318.972 11.86V19.744H319.972V11.86H318.972ZM319.472 20.244H330.92V19.244H319.472V20.244ZM330.92 20.244C331.028 20.244 331.076 20.2744 331.116 20.3214L331.875 19.6706C331.628 19.3816 331.292 19.244 330.92 19.244V20.244ZM331.17 20.3756C331.206 20.4062 331.248 20.459 331.248 20.608H332.248C332.248 20.229 332.121 19.8738 331.821 19.6164L331.17 20.3756ZM331.248 20.608V21.94H332.248V20.608H331.248ZM331.248 21.94C331.248 22.0489 331.215 22.1253 331.142 22.1984L331.849 22.9056C332.112 22.6427 332.248 22.3111 332.248 21.94H331.248ZM331.142 22.1984C331.108 22.2321 331.052 22.268 330.92 22.268V23.268C331.267 23.268 331.595 23.1599 331.849 22.9056L331.142 22.1984ZM330.92 22.268H319.472V23.268H330.92V22.268ZM318.972 22.768V30.94H319.972V22.768H318.972ZM319.472 31.44H332V30.44H319.472V31.44ZM332 31.44C332.172 31.44 332.233 31.4848 332.258 31.5096L332.965 30.8024C332.702 30.5392 332.355 30.44 332 30.44V31.44ZM332.258 31.5096C332.283 31.5343 332.328 31.5956 332.328 31.768H333.328C333.328 31.4124 333.228 31.0657 332.965 30.8024L332.258 31.5096ZM332.328 31.768V33.172H333.328V31.768H332.328ZM332.328 33.172C332.328 33.2809 332.295 33.3573 332.222 33.4304L332.929 34.1376C333.192 33.8747 333.328 33.5431 333.328 33.172H332.328ZM332.222 33.4304C332.188 33.4641 332.132 33.5 332 33.5V34.5C332.347 34.5 332.675 34.3919 332.929 34.1376L332.222 33.4304ZM332 33.5H316.844V34.5H332V33.5ZM345.264 33.784L344.884 34.1094L344.909 34.1386L344.938 34.1636L345.264 33.784ZM345.264 9.052L345.617 9.40555L345.617 9.40555L345.264 9.052ZM361.14 10.744L361.459 10.3594L361.459 10.3594L361.14 10.744ZM362.112 20.86L361.716 20.5536L361.713 20.5587L362.112 20.86ZM358.332 23.308L358.197 22.8264L357.576 23.0001L357.899 23.5585L358.332 23.308ZM363.876 32.884L364.323 32.6604L364.316 32.6467L364.308 32.6335L363.876 32.884ZM363.732 33.784L363.406 33.4044L363.392 33.4169L363.378 33.4304L363.732 33.784ZM360.636 33.748L360.306 34.1243L360.317 34.1338L360.329 34.1427L360.636 33.748ZM360.096 33.028L360.536 32.7909L360.53 32.7801L360.096 33.028ZM354.876 23.884L355.31 23.6361L355.166 23.384H354.876V23.884ZM348.576 23.884V23.384H348.076V23.884H348.576ZM348.324 33.784L348.649 34.1636L348.664 34.1511L348.677 34.1376L348.324 33.784ZM348.576 11.824V11.324H348.076V11.824H348.576ZM348.576 20.824H348.076V21.324H348.576V20.824ZM345.876 33.5C345.744 33.5 345.658 33.4639 345.589 33.4044L344.938 34.1636C345.205 34.3921 345.527 34.5 345.876 34.5V33.5ZM345.643 33.4586C345.584 33.3892 345.548 33.3035 345.548 33.172H344.548C344.548 33.5205 344.656 33.8428 344.884 34.1094L345.643 33.4586ZM345.548 33.172V9.664H344.548V33.172H345.548ZM345.548 9.664C345.548 9.4916 345.592 9.4303 345.617 9.40555L344.91 8.69845C344.647 8.96169 344.548 9.30839 344.548 9.664H345.548ZM345.617 9.40555C345.69 9.33238 345.767 9.3 345.876 9.3V8.3C345.505 8.3 345.173 8.43561 344.91 8.69845L345.617 9.40555ZM345.876 9.3H354.66V8.3H345.876V9.3ZM354.66 9.3C357.345 9.3 359.378 9.93024 360.82 11.1286L361.459 10.3594C359.782 8.96576 357.494 8.3 354.66 8.3V9.3ZM360.82 11.1286C362.242 12.3099 362.98 14.0267 362.98 16.36H363.98C363.98 13.7973 363.157 11.7701 361.459 10.3594L360.82 11.1286ZM362.98 16.36C362.98 18.0987 362.546 19.4836 361.717 20.5536L362.507 21.1664C363.501 19.8844 363.98 18.2693 363.98 16.36H362.98ZM361.713 20.5587C360.9 21.6345 359.74 22.3953 358.197 22.8264L358.466 23.7896C360.187 23.3087 361.547 22.4375 362.511 21.1613L361.713 20.5587ZM357.899 23.5585L363.443 33.1345L364.308 32.6335L358.764 23.0575L357.899 23.5585ZM363.428 33.1076C363.477 33.2048 363.484 33.2595 363.484 33.28H364.484C364.484 33.0605 364.418 32.8512 364.323 32.6604L363.428 33.1076ZM363.484 33.28C363.484 33.303 363.482 33.3393 363.406 33.4044L364.057 34.1636C364.317 33.9407 364.484 33.641 364.484 33.28H363.484ZM363.378 33.4304C363.322 33.487 363.278 33.5 363.228 33.5V34.5C363.561 34.5 363.854 34.369 364.085 34.1376L363.378 33.4304ZM363.228 33.5H361.5V34.5H363.228V33.5ZM361.5 33.5C361.216 33.5 361.047 33.4342 360.943 33.3533L360.329 34.1427C360.657 34.3978 361.064 34.5 361.5 34.5V33.5ZM360.965 33.3717C360.832 33.2552 360.686 33.0693 360.536 32.7909L359.655 33.2651C359.842 33.6107 360.056 33.9048 360.306 34.1243L360.965 33.3717ZM360.53 32.7801L355.31 23.6361L354.441 24.1319L359.661 33.2759L360.53 32.7801ZM354.876 23.384H348.576V24.384H354.876V23.384ZM348.076 23.884V33.172H349.076V23.884H348.076ZM348.076 33.172C348.076 33.2809 348.043 33.3573 347.97 33.4304L348.677 34.1376C348.94 33.8747 349.076 33.5431 349.076 33.172H348.076ZM347.998 33.4044C347.929 33.4639 347.843 33.5 347.712 33.5V34.5C348.06 34.5 348.382 34.3921 348.649 34.1636L347.998 33.4044ZM347.712 33.5H345.876V34.5H347.712V33.5ZM354.516 21.324C356.361 21.324 357.839 20.9387 358.86 20.0821C359.898 19.2113 360.38 17.9264 360.38 16.324H359.38C359.38 17.7216 358.967 18.6867 358.217 19.3159C357.45 19.9593 356.246 20.324 354.516 20.324V21.324ZM360.38 16.324C360.38 14.7216 359.898 13.4367 358.86 12.5659C357.839 11.7093 356.361 11.324 354.516 11.324V12.324C356.246 12.324 357.45 12.6887 358.217 13.3321C358.967 13.9613 359.38 14.9264 359.38 16.324H360.38ZM354.516 11.324H348.576V12.324H354.516V11.324ZM348.076 11.824V20.824H349.076V11.824H348.076ZM348.576 21.324H354.516V20.324H348.576V21.324Z" fill="white"/>
<path d="M392.96 34C392.72 34 392.516 33.928 392.348 33.784C392.204 33.616 392.132 33.412 392.132 33.172V9.664C392.132 9.4 392.204 9.196 392.348 9.052C392.516 8.884 392.72 8.8 392.96 8.8H401.132C404.756 8.8 407.372 9.616 408.98 11.248C410.588 12.856 411.428 15.292 411.5 18.556C411.524 19.252 411.536 20.188 411.536 21.364C411.536 22.54 411.524 23.488 411.5 24.208C411.428 26.488 411.044 28.348 410.348 29.788C409.676 31.204 408.608 32.26 407.144 32.956C405.68 33.652 403.736 34 401.312 34H392.96ZM401.132 30.94C402.788 30.94 404.096 30.712 405.056 30.256C406.04 29.8 406.748 29.08 407.18 28.096C407.636 27.088 407.888 25.744 407.936 24.064C407.984 22.624 408.008 21.724 408.008 21.364C408.008 20.98 407.984 20.092 407.936 18.7C407.888 16.324 407.324 14.596 406.244 13.516C405.164 12.412 403.4 11.86 400.952 11.86H395.66V30.94H401.132ZM424.98 34C424.74 34 424.536 33.928 424.368 33.784C424.224 33.616 424.152 33.412 424.152 33.172V9.664C424.152 9.4 424.224 9.196 424.368 9.052C424.536 8.884 424.74 8.8 424.98 8.8H439.848C440.088 8.8 440.28 8.884 440.424 9.052C440.592 9.196 440.676 9.4 440.676 9.664V11.032C440.676 11.272 440.604 11.476 440.46 11.644C440.316 11.788 440.112 11.86 439.848 11.86H427.608V19.744H439.056C439.296 19.744 439.488 19.828 439.632 19.996C439.8 20.14 439.884 20.344 439.884 20.608V21.94C439.884 22.18 439.8 22.384 439.632 22.552C439.488 22.696 439.296 22.768 439.056 22.768H427.608V30.94H440.136C440.4 30.94 440.604 31.012 440.748 31.156C440.892 31.3 440.964 31.504 440.964 31.768V33.172C440.964 33.412 440.88 33.616 440.712 33.784C440.568 33.928 440.376 34 440.136 34H424.98ZM461.284 34.36C459.292 34.36 457.564 34.048 456.1 33.424C454.66 32.8 453.556 31.984 452.788 30.976C452.02 29.944 451.612 28.84 451.564 27.664C451.564 27.472 451.636 27.304 451.78 27.16C451.948 26.992 452.14 26.908 452.356 26.908H454.192C454.648 26.908 454.96 27.148 455.128 27.628C455.344 28.636 455.956 29.5 456.964 30.22C457.996 30.94 459.436 31.3 461.284 31.3C463.276 31.3 464.776 30.952 465.784 30.256C466.792 29.536 467.296 28.54 467.296 27.268C467.296 26.452 467.044 25.792 466.54 25.288C466.06 24.784 465.34 24.34 464.38 23.956C463.42 23.572 461.98 23.092 460.06 22.516C458.188 21.988 456.7 21.424 455.596 20.824C454.492 20.224 453.664 19.48 453.112 18.592C452.56 17.704 452.284 16.588 452.284 15.244C452.284 13.948 452.632 12.784 453.328 11.752C454.048 10.72 455.068 9.916 456.388 9.34C457.708 8.74 459.28 8.44 461.104 8.44C462.976 8.44 464.584 8.776 465.928 9.448C467.272 10.096 468.292 10.924 468.988 11.932C469.684 12.94 470.056 13.948 470.104 14.956C470.104 15.148 470.032 15.316 469.888 15.46C469.768 15.604 469.588 15.676 469.348 15.676H467.44C466.936 15.676 466.624 15.448 466.504 14.992C466.36 13.984 465.796 13.156 464.812 12.508C463.828 11.836 462.592 11.5 461.104 11.5C459.472 11.5 458.188 11.812 457.252 12.436C456.316 13.06 455.848 13.984 455.848 15.208C455.848 16.024 456.064 16.696 456.496 17.224C456.952 17.752 457.636 18.22 458.548 18.628C459.46 19.012 460.792 19.456 462.544 19.96C464.584 20.512 466.192 21.088 467.368 21.688C468.544 22.264 469.42 22.996 469.996 23.884C470.572 24.748 470.86 25.852 470.86 27.196C470.86 29.428 469.996 31.18 468.268 32.452C466.54 33.724 464.212 34.36 461.284 34.36ZM483.607 34C483.367 34 483.163 33.928 482.995 33.784C482.851 33.616 482.779 33.412 482.779 33.172V9.628C482.779 9.388 482.851 9.196 482.995 9.052C483.163 8.884 483.367 8.8 483.607 8.8H485.515C485.755 8.8 485.947 8.884 486.091 9.052C486.259 9.196 486.343 9.388 486.343 9.628V33.172C486.343 33.412 486.259 33.616 486.091 33.784C485.947 33.928 485.755 34 485.515 34H483.607ZM509.003 34.36C505.859 34.36 503.411 33.508 501.659 31.804C499.931 30.076 499.007 27.724 498.887 24.748C498.863 24.028 498.851 22.9 498.851 21.364C498.851 19.804 498.863 18.676 498.887 17.98C499.007 15.028 499.943 12.7 501.695 10.996C503.447 9.292 505.883 8.44 509.003 8.44C511.115 8.44 512.903 8.824 514.367 9.592C515.855 10.336 516.971 11.248 517.715 12.328C518.459 13.408 518.855 14.416 518.903 15.352V15.424C518.903 15.616 518.831 15.772 518.687 15.892C518.543 16.012 518.363 16.072 518.147 16.072H516.023C515.783 16.072 515.603 16.036 515.483 15.964C515.387 15.868 515.291 15.688 515.195 15.424C514.835 14.344 514.139 13.42 513.107 12.652C512.099 11.884 510.731 11.5 509.003 11.5C507.011 11.5 505.451 12.04 504.323 13.12C503.195 14.2 502.583 15.88 502.487 18.16C502.463 18.856 502.451 19.924 502.451 21.364C502.451 22.78 502.463 23.848 502.487 24.568C502.583 26.872 503.195 28.576 504.323 29.68C505.451 30.76 507.011 31.3 509.003 31.3C511.019 31.3 512.627 30.748 513.827 29.644C515.027 28.54 515.627 26.884 515.627 24.676V23.164H510.227C509.987 23.164 509.783 23.092 509.615 22.948C509.471 22.78 509.399 22.564 509.399 22.3V21.148C509.399 20.908 509.471 20.704 509.615 20.536C509.783 20.368 509.987 20.284 510.227 20.284H518.363C518.603 20.284 518.795 20.368 518.939 20.536C519.107 20.68 519.191 20.884 519.191 21.148V24.604C519.191 26.572 518.783 28.288 517.967 29.752C517.151 31.216 515.975 32.356 514.439 33.172C512.903 33.964 511.091 34.36 509.003 34.36ZM532.355 34C532.115 34 531.911 33.928 531.743 33.784C531.599 33.616 531.527 33.412 531.527 33.172V9.664C531.527 9.4 531.599 9.196 531.743 9.052C531.911 8.884 532.115 8.8 532.355 8.8H534.011C534.443 8.8 534.743 8.968 534.911 9.304L546.863 27.664V9.664C546.863 9.4 546.935 9.196 547.079 9.052C547.247 8.884 547.451 8.8 547.691 8.8H549.419C549.683 8.8 549.887 8.884 550.031 9.052C550.199 9.196 550.283 9.4 550.283 9.664V33.136C550.283 33.376 550.199 33.58 550.031 33.748C549.887 33.916 549.695 34 549.455 34H547.727C547.367 34 547.079 33.832 546.863 33.496L534.947 15.316V33.172C534.947 33.412 534.863 33.616 534.695 33.784C534.527 33.928 534.323 34 534.083 34H532.355Z" fill="#03DAC6"/>
<path d="M392.348 33.784L391.968 34.1094L391.993 34.1386L392.023 34.1636L392.348 33.784ZM392.348 9.052L392.702 9.40555L392.702 9.40555L392.348 9.052ZM408.98 11.248L408.624 11.5989L408.626 11.6016L408.98 11.248ZM411.5 18.556L411 18.567L411 18.5732L411.5 18.556ZM411.5 24.208L411 24.1913L411 24.1922L411.5 24.208ZM410.348 29.788L409.898 29.5704L409.896 29.5736L410.348 29.788ZM405.056 30.256L404.846 29.8023L404.841 29.8044L405.056 30.256ZM407.18 28.096L406.724 27.8899L406.722 27.895L407.18 28.096ZM407.936 24.064L407.436 24.0473L407.436 24.0497L407.936 24.064ZM407.936 18.7L407.436 18.7101L407.436 18.7172L407.936 18.7ZM406.244 13.516L405.887 13.8657L405.89 13.8696L406.244 13.516ZM395.66 11.86V11.36H395.16V11.86H395.66ZM395.66 30.94H395.16V31.44H395.66V30.94ZM392.96 33.5C392.828 33.5 392.743 33.4639 392.673 33.4044L392.023 34.1636C392.289 34.3921 392.612 34.5 392.96 34.5V33.5ZM392.728 33.4586C392.668 33.3892 392.632 33.3035 392.632 33.172H391.632C391.632 33.5205 391.74 33.8428 391.968 34.1094L392.728 33.4586ZM392.632 33.172V9.664H391.632V33.172H392.632ZM392.632 9.664C392.632 9.4916 392.677 9.4303 392.702 9.40555L391.994 8.69845C391.731 8.96169 391.632 9.30839 391.632 9.664H392.632ZM392.702 9.40555C392.775 9.33238 392.851 9.3 392.96 9.3V8.3C392.589 8.3 392.257 8.43561 391.994 8.69845L392.702 9.40555ZM392.96 9.3H401.132V8.3H392.96V9.3ZM401.132 9.3C404.698 9.3 407.152 10.1052 408.624 11.5989L409.336 10.8971C407.592 9.12679 404.814 8.3 401.132 8.3V9.3ZM408.626 11.6016C410.11 13.0854 410.93 15.3758 411 18.567L412 18.545C411.926 15.2082 411.066 12.6266 409.334 10.8944L408.626 11.6016ZM411 18.5732C411.024 19.2609 411.036 20.1904 411.036 21.364H412.036C412.036 20.1856 412.024 19.2431 412 18.5388L411 18.5732ZM411.036 21.364C411.036 22.5374 411.024 23.4792 411 24.1913L412 24.2247C412.024 23.4968 412.036 22.5426 412.036 21.364H411.036ZM411 24.1922C410.93 26.4299 410.553 28.2143 409.898 29.5704L410.798 30.0056C411.535 28.4817 411.926 26.5461 412 24.2238L411 24.1922ZM409.896 29.5736C409.275 30.8818 408.293 31.856 406.929 32.5044L407.359 33.4076C408.923 32.664 410.077 31.5262 410.8 30.0024L409.896 29.5736ZM406.929 32.5044C405.557 33.1567 403.695 33.5 401.312 33.5V34.5C403.777 34.5 405.803 34.1473 407.359 33.4076L406.929 32.5044ZM401.312 33.5H392.96V34.5H401.312V33.5ZM401.132 31.44C402.825 31.44 404.216 31.2083 405.271 30.7076L404.841 29.8044C403.976 30.2157 402.751 30.44 401.132 30.44V31.44ZM405.266 30.7097C406.36 30.2029 407.156 29.3937 407.638 28.297L406.722 27.895C406.34 28.7663 405.72 29.3971 404.846 29.8023L405.266 30.7097ZM407.636 28.3021C408.129 27.2107 408.387 25.7935 408.436 24.0783L407.436 24.0497C407.389 25.6945 407.143 26.9653 406.724 27.8899L407.636 28.3021ZM408.436 24.0807C408.484 22.6438 408.508 21.7342 408.508 21.364H407.508C407.508 21.7138 407.484 22.6042 407.436 24.0473L408.436 24.0807ZM408.508 21.364C408.508 20.9696 408.484 20.0721 408.436 18.6828L407.436 18.7172C407.484 20.1119 407.508 20.9904 407.508 21.364H408.508ZM408.436 18.6899C408.387 16.2543 407.808 14.3732 406.598 13.1624L405.89 13.8696C406.84 14.8188 407.389 16.3937 407.436 18.7101L408.436 18.6899ZM406.601 13.1664C405.385 11.9227 403.458 11.36 400.952 11.36V12.36C403.342 12.36 404.943 12.9013 405.887 13.8656L406.601 13.1664ZM400.952 11.36H395.66V12.36H400.952V11.36ZM395.16 11.86V30.94H396.16V11.86H395.16ZM395.66 31.44H401.132V30.44H395.66V31.44ZM424.368 33.784L423.989 34.1094L424.014 34.1386L424.043 34.1636L424.368 33.784ZM424.368 9.052L424.722 9.40555L424.722 9.40555L424.368 9.052ZM440.424 9.052L440.045 9.37739L440.07 9.4066L440.099 9.43163L440.424 9.052ZM440.46 11.644L440.814 11.9975L440.827 11.984L440.84 11.9694L440.46 11.644ZM427.608 11.86V11.36H427.108V11.86H427.608ZM427.608 19.744H427.108V20.244H427.608V19.744ZM439.632 19.996L439.253 20.3214L439.278 20.3506L439.307 20.3756L439.632 19.996ZM439.632 22.552L439.279 22.1984L439.279 22.1984L439.632 22.552ZM427.608 22.768V22.268H427.108V22.768H427.608ZM427.608 30.94H427.108V31.44H427.608V30.94ZM440.712 33.784L441.066 34.1376L441.066 34.1376L440.712 33.784ZM424.98 33.5C424.849 33.5 424.763 33.4639 424.694 33.4044L424.043 34.1636C424.309 34.3921 424.632 34.5 424.98 34.5V33.5ZM424.748 33.4586C424.688 33.3892 424.652 33.3035 424.652 33.172H423.652C423.652 33.5205 423.76 33.8428 423.989 34.1094L424.748 33.4586ZM424.652 33.172V9.664H423.652V33.172H424.652ZM424.652 9.664C424.652 9.4916 424.697 9.4303 424.722 9.40555L424.015 8.69845C423.752 8.96169 423.652 9.30839 423.652 9.664H424.652ZM424.722 9.40555C424.795 9.33238 424.871 9.3 424.98 9.3V8.3C424.609 8.3 424.278 8.43561 424.015 8.69845L424.722 9.40555ZM424.98 9.3H439.848V8.3H424.98V9.3ZM439.848 9.3C439.956 9.3 440.004 9.33041 440.045 9.37739L440.804 8.7266C440.556 8.43759 440.22 8.3 439.848 8.3V9.3ZM440.099 9.43163C440.135 9.46216 440.176 9.51496 440.176 9.664H441.176C441.176 9.28504 441.05 8.92984 440.75 8.67237L440.099 9.43163ZM440.176 9.664V11.032H441.176V9.664H440.176ZM440.176 11.032C440.176 11.1635 440.14 11.2492 440.081 11.3186L440.84 11.9694C441.068 11.7028 441.176 11.3805 441.176 11.032H440.176ZM440.107 11.2904C440.082 11.3152 440.021 11.36 439.848 11.36V12.36C440.204 12.36 440.551 12.2608 440.814 11.9975L440.107 11.2904ZM439.848 11.36H427.608V12.36H439.848V11.36ZM427.108 11.86V19.744H428.108V11.86H427.108ZM427.608 20.244H439.056V19.244H427.608V20.244ZM439.056 20.244C439.164 20.244 439.212 20.2744 439.253 20.3214L440.012 19.6706C439.764 19.3816 439.428 19.244 439.056 19.244V20.244ZM439.307 20.3756C439.343 20.4062 439.384 20.459 439.384 20.608H440.384C440.384 20.229 440.258 19.8738 439.958 19.6164L439.307 20.3756ZM439.384 20.608V21.94H440.384V20.608H439.384ZM439.384 21.94C439.384 22.0489 439.352 22.1253 439.279 22.1984L439.986 22.9056C440.249 22.6427 440.384 22.3111 440.384 21.94H439.384ZM439.279 22.1984C439.245 22.2321 439.189 22.268 439.056 22.268V23.268C439.403 23.268 439.732 23.1599 439.986 22.9056L439.279 22.1984ZM439.056 22.268H427.608V23.268H439.056V22.268ZM427.108 22.768V30.94H428.108V22.768H427.108ZM427.608 31.44H440.136V30.44H427.608V31.44ZM440.136 31.44C440.309 31.44 440.37 31.4848 440.395 31.5096L441.102 30.8024C440.839 30.5392 440.492 30.44 440.136 30.44V31.44ZM440.395 31.5096C440.42 31.5343 440.464 31.5956 440.464 31.768H441.464C441.464 31.4124 441.365 31.0657 441.102 30.8024L440.395 31.5096ZM440.464 31.768V33.172H441.464V31.768H440.464ZM440.464 33.172C440.464 33.2809 440.432 33.3573 440.359 33.4304L441.066 34.1376C441.329 33.8747 441.464 33.5431 441.464 33.172H440.464ZM440.359 33.4304C440.325 33.4641 440.269 33.5 440.136 33.5V34.5C440.483 34.5 440.811 34.3919 441.066 34.1376L440.359 33.4304ZM440.136 33.5H424.98V34.5H440.136V33.5ZM456.1 33.424L455.902 33.8828L455.904 33.884L456.1 33.424ZM452.788 30.976L452.387 31.2745L452.391 31.279L452.788 30.976ZM451.564 27.664H451.064V27.6742L451.065 27.6844L451.564 27.664ZM451.78 27.16L451.427 26.8064L451.427 26.8064L451.78 27.16ZM455.128 27.628L455.617 27.5232L455.611 27.4925L455.6 27.4628L455.128 27.628ZM456.964 30.22L456.674 30.6269L456.678 30.6301L456.964 30.22ZM465.784 30.256L466.068 30.6675L466.075 30.6629L465.784 30.256ZM466.54 25.288L466.178 25.6329L466.187 25.6416L466.54 25.288ZM464.38 23.956L464.566 23.4918L464.566 23.4918L464.38 23.956ZM460.06 22.516L460.204 22.037L460.196 22.0348L460.06 22.516ZM455.596 20.824L455.835 20.3847L455.835 20.3847L455.596 20.824ZM453.112 18.592L452.688 18.856L452.688 18.856L453.112 18.592ZM453.328 11.752L452.918 11.4659L452.914 11.4724L453.328 11.752ZM456.388 9.34L456.588 9.79832L456.595 9.79518L456.388 9.34ZM465.928 9.448L465.705 9.89526L465.711 9.89838L465.928 9.448ZM468.988 11.932L469.4 11.6479L469.4 11.6479L468.988 11.932ZM470.104 14.956H470.604V14.9441L470.604 14.9322L470.104 14.956ZM469.888 15.46L469.535 15.1064L469.519 15.1225L469.504 15.1399L469.888 15.46ZM466.504 14.992L466.009 15.0627L466.013 15.0913L466.021 15.1192L466.504 14.992ZM464.812 12.508L464.53 12.921L464.537 12.9256L464.812 12.508ZM457.252 12.436L456.975 12.02L456.975 12.02L457.252 12.436ZM456.496 17.224L456.109 17.5407L456.118 17.5508L456.496 17.224ZM458.548 18.628L458.344 19.0845L458.354 19.0888L458.548 18.628ZM462.544 19.96L462.406 20.4406L462.414 20.4426L462.544 19.96ZM467.368 21.688L467.141 22.1334L467.148 22.137L467.368 21.688ZM469.996 23.884L469.577 24.1561L469.58 24.1613L469.996 23.884ZM468.268 32.452L468.565 32.8547L468.565 32.8547L468.268 32.452ZM461.284 33.86C459.343 33.86 457.685 33.5559 456.296 32.964L455.904 33.884C457.444 34.5401 459.241 34.86 461.284 34.86V33.86ZM456.299 32.9652C454.919 32.3672 453.891 31.5985 453.186 30.673L452.391 31.279C453.221 32.3695 454.402 33.2328 455.902 33.8828L456.299 32.9652ZM453.189 30.6775C452.476 29.7183 452.107 28.7098 452.064 27.6436L451.065 27.6844C451.117 28.9702 451.565 30.1697 452.387 31.2745L453.189 30.6775ZM452.064 27.664C452.064 27.6133 452.077 27.5701 452.134 27.5136L451.427 26.8064C451.195 27.0379 451.064 27.3307 451.064 27.664H452.064ZM452.134 27.5136C452.218 27.429 452.287 27.408 452.356 27.408V26.408C451.994 26.408 451.678 26.555 451.427 26.8064L452.134 27.5136ZM452.356 27.408H454.192V26.408H452.356V27.408ZM454.192 27.408C454.328 27.408 454.408 27.4419 454.463 27.4843C454.523 27.5301 454.595 27.6184 454.656 27.7932L455.6 27.4628C455.493 27.1576 455.326 26.8859 455.073 26.6917C454.816 26.4941 454.512 26.408 454.192 26.408V27.408ZM454.639 27.7328C454.887 28.8863 455.586 29.8498 456.674 30.6269L457.255 29.8131C456.327 29.1502 455.802 28.3857 455.617 27.5232L454.639 27.7328ZM456.678 30.6301C457.825 31.4302 459.38 31.8 461.284 31.8V30.8C459.493 30.8 458.168 30.4498 457.25 29.8099L456.678 30.6301ZM461.284 31.8C463.32 31.8 464.939 31.447 466.068 30.6674L465.5 29.8446C464.613 30.457 463.233 30.8 461.284 30.8V31.8ZM466.075 30.6629C467.218 29.8461 467.796 28.6963 467.796 27.268H466.796C466.796 28.3837 466.366 29.2259 465.494 29.8491L466.075 30.6629ZM467.796 27.268C467.796 26.3402 467.505 25.546 466.894 24.9344L466.187 25.6416C466.583 26.038 466.796 26.5638 466.796 27.268H467.796ZM466.902 24.9432C466.355 24.3682 465.563 23.8906 464.566 23.4918L464.195 24.4202C465.118 24.7894 465.766 25.1998 466.178 25.6328L466.902 24.9432ZM464.566 23.4918C463.585 23.0993 462.128 22.6142 460.204 22.0371L459.917 22.9949C461.833 23.5698 463.256 24.0447 464.195 24.4202L464.566 23.4918ZM460.196 22.0348C458.343 21.512 456.894 20.96 455.835 20.3847L455.358 21.2633C456.507 21.8879 458.034 22.464 459.925 22.9972L460.196 22.0348ZM455.835 20.3847C454.792 19.8177 454.035 19.1289 453.537 18.328L452.688 18.856C453.294 19.8311 454.193 20.6303 455.358 21.2633L455.835 20.3847ZM453.537 18.328C453.046 17.5389 452.784 16.5209 452.784 15.244H451.784C451.784 16.6551 452.074 17.8691 452.688 18.856L453.537 18.328ZM452.784 15.244C452.784 14.0433 453.105 12.9774 453.743 12.0316L452.914 11.4724C452.16 12.5905 451.784 13.8527 451.784 15.244H452.784ZM453.738 12.0381C454.398 11.0922 455.34 10.3428 456.588 9.79827L456.188 8.88173C454.796 9.48919 453.698 10.3478 452.918 11.4659L453.738 12.0381ZM456.595 9.79518C457.836 9.2313 459.334 8.94 461.104 8.94V7.94C459.227 7.94 457.581 8.2487 456.181 8.88481L456.595 9.79518ZM461.104 8.94C462.917 8.94 464.445 9.26541 465.705 9.89521L466.152 9.00078C464.724 8.28659 463.035 7.94 461.104 7.94V8.94ZM465.711 9.89838C466.994 10.5169 467.94 11.2935 468.577 12.2161L469.4 11.6479C468.645 10.5545 467.551 9.67509 466.145 8.99761L465.711 9.89838ZM468.577 12.2161C469.231 13.1637 469.562 14.0833 469.605 14.9798L470.604 14.9322C470.55 13.8127 470.137 12.7162 469.4 11.6479L468.577 12.2161ZM469.604 14.956C469.604 15.0067 469.591 15.0499 469.535 15.1064L470.242 15.8136C470.473 15.5821 470.604 15.2893 470.604 14.956H469.604ZM469.504 15.1399C469.499 15.1459 469.493 15.1515 469.478 15.1578C469.459 15.1652 469.419 15.176 469.348 15.176V16.176C469.692 16.176 470.032 16.0686 470.272 15.7801L469.504 15.1399ZM469.348 15.176H467.44V16.176H469.348V15.176ZM467.44 15.176C467.262 15.176 467.171 15.1361 467.123 15.1013C467.079 15.069 467.025 15.007 466.988 14.8648L466.021 15.1192C466.103 15.433 466.266 15.713 466.533 15.9087C466.798 16.1019 467.114 16.176 467.44 16.176V15.176ZM466.999 14.9213C466.832 13.7486 466.17 12.8035 465.087 12.0904L464.537 12.9256C465.422 13.5085 465.889 14.2194 466.009 15.0627L466.999 14.9213ZM465.094 12.0951C464.009 11.3537 462.668 11 461.104 11V12C462.517 12 463.648 12.3183 464.53 12.9209L465.094 12.0951ZM461.104 11C459.416 11 458.022 11.3217 456.975 12.02L457.53 12.852C458.354 12.3023 459.529 12 461.104 12V11ZM456.975 12.02C455.886 12.746 455.348 13.8342 455.348 15.208H456.348C456.348 14.1338 456.747 13.374 457.53 12.852L456.975 12.02ZM455.348 15.208C455.348 16.1159 455.591 16.9066 456.109 17.5406L456.883 16.9074C456.538 16.4854 456.348 15.9321 456.348 15.208H455.348ZM456.118 17.5508C456.638 18.1528 457.392 18.6585 458.344 19.0844L458.753 18.1716C457.881 17.7815 457.267 17.3511 456.875 16.8972L456.118 17.5508ZM458.354 19.0888C459.294 19.4844 460.648 19.9348 462.406 20.4405L462.683 19.4795C460.937 18.9772 459.627 18.5396 458.742 18.1672L458.354 19.0888ZM462.414 20.4426C464.438 20.9903 466.009 21.5556 467.141 22.1334L467.596 21.2426C466.376 20.6204 464.731 20.0337 462.675 19.4774L462.414 20.4426ZM467.148 22.137C468.262 22.6826 469.061 23.3602 469.577 24.1561L470.416 23.6119C469.78 22.6318 468.826 21.8454 467.588 21.239L467.148 22.137ZM469.58 24.1613C470.088 24.9222 470.36 25.9219 470.36 27.196H471.36C471.36 25.7821 471.057 24.5738 470.412 23.6066L469.58 24.1613ZM470.36 27.196C470.36 29.2766 469.566 30.8759 467.972 32.0493L468.565 32.8547C470.427 31.4841 471.36 29.5794 471.36 27.196H470.36ZM467.972 32.0493C466.356 33.2387 464.144 33.86 461.284 33.86V34.86C464.281 34.86 466.724 34.2093 468.565 32.8547L467.972 32.0493ZM482.995 33.784L482.615 34.1094L482.64 34.1386L482.669 34.1636L482.995 33.784ZM482.995 9.052L483.348 9.40555L483.348 9.40555L482.995 9.052ZM486.091 9.052L485.711 9.37739L485.736 9.4066L485.765 9.43163L486.091 9.052ZM486.091 33.784L485.737 33.4304L485.737 33.4304L486.091 33.784ZM483.607 33.5C483.475 33.5 483.39 33.4639 483.32 33.4044L482.669 34.1636C482.936 34.3921 483.258 34.5 483.607 34.5V33.5ZM483.375 33.4586C483.315 33.3892 483.279 33.3035 483.279 33.172H482.279C482.279 33.5205 482.387 33.8428 482.615 34.1094L483.375 33.4586ZM483.279 33.172V9.628H482.279V33.172H483.279ZM483.279 9.628C483.279 9.49513 483.315 9.43918 483.348 9.40555L482.641 8.69845C482.387 8.95281 482.279 9.28087 482.279 9.628H483.279ZM483.348 9.40555C483.422 9.33238 483.498 9.3 483.607 9.3V8.3C483.236 8.3 482.904 8.43561 482.641 8.69845L483.348 9.40555ZM483.607 9.3H485.515V8.3H483.607V9.3ZM485.515 9.3C485.623 9.3 485.671 9.33041 485.711 9.37739L486.471 8.7266C486.223 8.43759 485.887 8.3 485.515 8.3V9.3ZM485.765 9.43163C485.812 9.4719 485.843 9.51998 485.843 9.628H486.843C486.843 9.25602 486.705 8.9201 486.416 8.67237L485.765 9.43163ZM485.843 9.628V33.172H486.843V9.628H485.843ZM485.843 33.172C485.843 33.2809 485.81 33.3573 485.737 33.4304L486.444 34.1376C486.707 33.8747 486.843 33.5431 486.843 33.172H485.843ZM485.737 33.4304C485.704 33.4641 485.648 33.5 485.515 33.5V34.5C485.862 34.5 486.19 34.3919 486.444 34.1376L485.737 33.4304ZM485.515 33.5H483.607V34.5H485.515V33.5ZM501.659 31.804L501.305 32.1576L501.31 32.1624L501.659 31.804ZM498.887 24.748L498.387 24.7647L498.387 24.7681L498.887 24.748ZM498.887 17.98L498.387 17.9597L498.387 17.9628L498.887 17.98ZM501.695 10.996L501.346 10.6376L501.346 10.6376L501.695 10.996ZM514.367 9.592L514.134 10.0349L514.143 10.0392L514.367 9.592ZM517.715 12.328L518.126 12.0443L518.126 12.0443L517.715 12.328ZM518.903 15.352H519.403V15.3392L519.402 15.3264L518.903 15.352ZM518.687 15.892L518.367 15.5079L518.367 15.5079L518.687 15.892ZM515.483 15.964L515.129 16.3176L515.173 16.3611L515.225 16.3927L515.483 15.964ZM515.195 15.424L514.72 15.5822L514.725 15.5949L515.195 15.424ZM513.107 12.652L512.804 13.0497L512.808 13.0531L513.107 12.652ZM504.323 13.12L503.977 12.7588L503.977 12.7588L504.323 13.12ZM502.487 18.16L501.987 18.139L501.987 18.1428L502.487 18.16ZM502.487 24.568L501.987 24.5847L501.987 24.5888L502.487 24.568ZM504.323 29.68L503.973 30.0374L503.977 30.0412L504.323 29.68ZM513.827 29.644L513.488 29.276L513.488 29.276L513.827 29.644ZM515.627 23.164H516.127V22.664H515.627V23.164ZM509.615 22.948L509.235 23.2734L509.26 23.3026L509.289 23.3276L509.615 22.948ZM509.615 20.536L509.261 20.1824L509.247 20.196L509.235 20.2106L509.615 20.536ZM518.939 20.536L518.559 20.8614L518.584 20.8906L518.613 20.9156L518.939 20.536ZM517.967 29.752L517.53 29.5086L517.53 29.5086L517.967 29.752ZM514.439 33.172L514.668 33.6164L514.673 33.6136L514.439 33.172ZM509.003 33.86C505.95 33.86 503.641 33.0349 502.007 31.4456L501.31 32.1624C503.18 33.9811 505.767 34.86 509.003 34.86V33.86ZM502.012 31.4504C500.392 29.8298 499.502 27.6072 499.386 24.7279L498.387 24.7681C498.511 27.8408 499.47 30.3222 501.305 32.1576L502.012 31.4504ZM499.386 24.7313C499.363 24.0202 499.351 22.8992 499.351 21.364H498.351C498.351 22.9008 498.363 24.0358 498.387 24.7647L499.386 24.7313ZM499.351 21.364C499.351 19.8045 499.363 18.6839 499.386 17.9972L498.387 17.9628C498.363 18.6681 498.351 19.8035 498.351 21.364H499.351ZM499.386 18.0003C499.502 15.1479 500.401 12.9512 502.043 11.3544L501.346 10.6376C499.484 12.4488 498.511 14.9081 498.387 17.9597L499.386 18.0003ZM502.043 11.3544C503.678 9.76443 505.975 8.94 509.003 8.94V7.94C505.79 7.94 503.215 8.81957 501.346 10.6376L502.043 11.3544ZM509.003 8.94C511.056 8.94 512.759 9.31335 514.134 10.0348L514.599 9.14923C513.046 8.33465 511.174 7.94 509.003 7.94V8.94ZM514.143 10.0392C515.575 10.7554 516.618 11.6174 517.303 12.6117L518.126 12.0443C517.323 10.8786 516.134 9.91661 514.59 9.14479L514.143 10.0392ZM517.303 12.6117C518.014 13.6445 518.362 14.5639 518.403 15.3776L519.402 15.3264C519.348 14.2681 518.903 13.1715 518.126 12.0443L517.303 12.6117ZM518.403 15.352V15.424H519.403V15.352H518.403ZM518.403 15.424C518.403 15.4562 518.397 15.4705 518.395 15.4755C518.393 15.4801 518.387 15.491 518.367 15.5079L519.007 16.2761C519.268 16.0585 519.403 15.7602 519.403 15.424H518.403ZM518.367 15.5079C518.326 15.5418 518.264 15.572 518.147 15.572V16.572C518.461 16.572 518.759 16.4822 519.007 16.2761L518.367 15.5079ZM518.147 15.572H516.023V16.572H518.147V15.572ZM516.023 15.572C515.926 15.572 515.855 15.5646 515.806 15.5547C515.755 15.5446 515.738 15.5342 515.74 15.5353L515.225 16.3927C515.461 16.5339 515.749 16.572 516.023 16.572V15.572ZM515.836 15.6104C515.837 15.6116 515.832 15.6064 515.821 15.5907C515.81 15.5753 515.796 15.5529 515.78 15.5217C515.746 15.4586 515.707 15.3706 515.665 15.2531L514.725 15.5949C514.825 15.8695 514.951 16.1392 515.129 16.3176L515.836 15.6104ZM515.669 15.2659C515.272 14.0765 514.508 13.0717 513.405 12.2509L512.808 13.0531C513.769 13.7683 514.397 14.6115 514.72 15.5821L515.669 15.2659ZM513.41 12.2543C512.288 11.3995 510.801 11 509.003 11V12C510.66 12 511.909 12.3685 512.804 13.0497L513.41 12.2543ZM509.003 11C506.919 11 505.222 11.5671 503.977 12.7588L504.668 13.4812C505.68 12.5129 507.102 12 509.003 12V11ZM503.977 12.7588C502.72 13.962 502.086 15.789 501.987 18.139L502.986 18.181C503.079 15.971 503.669 14.438 504.668 13.4812L503.977 12.7588ZM501.987 18.1428C501.963 18.8478 501.951 19.923 501.951 21.364H502.951C502.951 19.925 502.963 18.8642 502.986 18.1772L501.987 18.1428ZM501.951 21.364C501.951 22.7813 501.963 23.8561 501.987 24.5847L502.986 24.5513C502.963 23.8399 502.951 22.7787 502.951 21.364H501.951ZM501.987 24.5888C502.086 26.962 502.72 28.8107 503.973 30.0373L504.672 29.3227C503.67 28.3413 503.079 26.782 502.986 24.5472L501.987 24.5888ZM503.977 30.0412C505.222 31.2329 506.919 31.8 509.003 31.8V30.8C507.102 30.8 505.68 30.2871 504.668 29.3188L503.977 30.0412ZM509.003 31.8C511.113 31.8 512.852 31.2198 514.165 30.012L513.488 29.276C512.401 30.2762 510.924 30.8 509.003 30.8V31.8ZM514.165 30.012C515.501 28.7833 516.127 26.9723 516.127 24.676H515.127C515.127 26.7957 514.553 28.2967 513.488 29.276L514.165 30.012ZM516.127 24.676V23.164H515.127V24.676H516.127ZM515.627 22.664H510.227V23.664H515.627V22.664ZM510.227 22.664C510.095 22.664 510.009 22.6279 509.94 22.5684L509.289 23.3276C509.556 23.5561 509.878 23.664 510.227 23.664V22.664ZM509.994 22.6226C509.942 22.562 509.899 22.4688 509.899 22.3H508.899C508.899 22.6592 508.999 22.998 509.235 23.2734L509.994 22.6226ZM509.899 22.3V21.148H508.899V22.3H509.899ZM509.899 21.148C509.899 21.0165 509.935 20.9308 509.994 20.8614L509.235 20.2106C509.007 20.4772 508.899 20.7995 508.899 21.148H509.899ZM509.968 20.8896C510.041 20.8164 510.118 20.784 510.227 20.784V19.784C509.856 19.784 509.524 19.9196 509.261 20.1824L509.968 20.8896ZM510.227 20.784H518.363V19.784H510.227V20.784ZM518.363 20.784C518.471 20.784 518.519 20.8144 518.559 20.8614L519.318 20.2106C519.071 19.9216 518.735 19.784 518.363 19.784V20.784ZM518.613 20.9156C518.649 20.9462 518.691 20.999 518.691 21.148H519.691C519.691 20.769 519.564 20.4138 519.264 20.1564L518.613 20.9156ZM518.691 21.148V24.604H519.691V21.148H518.691ZM518.691 24.604C518.691 26.5017 518.298 28.131 517.53 29.5086L518.403 29.9954C519.268 28.445 519.691 26.6423 519.691 24.604H518.691ZM517.53 29.5086C516.763 30.8851 515.658 31.9578 514.204 32.7304L514.673 33.6136C516.291 32.7542 517.539 31.5469 518.403 29.9954L517.53 29.5086ZM514.209 32.7276C512.758 33.4762 511.027 33.86 509.003 33.86V34.86C511.154 34.86 513.048 34.4518 514.668 33.6164L514.209 32.7276ZM531.743 33.784L531.363 34.1094L531.388 34.1386L531.417 34.1636L531.743 33.784ZM531.743 9.052L532.096 9.40555L532.096 9.40555L531.743 9.052ZM534.911 9.304L534.463 9.52761L534.476 9.55299L534.491 9.57678L534.911 9.304ZM546.863 27.664L546.443 27.9368L547.363 29.3486V27.664H546.863ZM547.079 9.052L547.432 9.40555L547.432 9.40555L547.079 9.052ZM550.031 9.052L549.651 9.37739L549.676 9.4066L549.705 9.43163L550.031 9.052ZM550.031 33.748L549.677 33.3944L549.663 33.408L549.651 33.4226L550.031 33.748ZM546.863 33.496L547.283 33.2256L547.281 33.2219L546.863 33.496ZM534.947 15.316L535.365 15.0419L534.447 13.6411V15.316H534.947ZM534.695 33.784L535.02 34.1636L535.035 34.1511L535.048 34.1376L534.695 33.784ZM532.355 33.5C532.223 33.5 532.137 33.4639 532.068 33.4044L531.417 34.1636C531.684 34.3921 532.006 34.5 532.355 34.5V33.5ZM532.122 33.4586C532.063 33.3892 532.027 33.3035 532.027 33.172H531.027C531.027 33.5205 531.134 33.8428 531.363 34.1094L532.122 33.4586ZM532.027 33.172V9.664H531.027V33.172H532.027ZM532.027 9.664C532.027 9.4916 532.071 9.4303 532.096 9.40555L531.389 8.69845C531.126 8.96169 531.027 9.30839 531.027 9.664H532.027ZM532.096 9.40555C532.169 9.33238 532.246 9.3 532.355 9.3V8.3C531.983 8.3 531.652 8.43561 531.389 8.69845L532.096 9.40555ZM532.355 9.3H534.011V8.3H532.355V9.3ZM534.011 9.3C534.163 9.3 534.257 9.32946 534.315 9.36225C534.37 9.39277 534.42 9.44054 534.463 9.52761L535.358 9.08039C535.233 8.83145 535.049 8.62723 534.804 8.48975C534.562 8.35454 534.29 8.3 534.011 8.3V9.3ZM534.491 9.57678L546.443 27.9368L547.282 27.3912L535.33 9.03122L534.491 9.57678ZM547.363 27.664V9.664H546.363V27.664H547.363ZM547.363 9.664C547.363 9.4916 547.407 9.4303 547.432 9.40555L546.725 8.69844C546.462 8.96169 546.363 9.30839 546.363 9.664H547.363ZM547.432 9.40555C547.505 9.33238 547.582 9.3 547.691 9.3V8.3C547.319 8.3 546.988 8.43561 546.725 8.69845L547.432 9.40555ZM547.691 9.3H549.419V8.3H547.691V9.3ZM549.419 9.3C549.568 9.3 549.62 9.34177 549.651 9.37739L550.41 8.7266C550.153 8.42623 549.797 8.3 549.419 8.3V9.3ZM549.705 9.43163C549.741 9.46216 549.783 9.51496 549.783 9.664H550.783C550.783 9.28504 550.656 8.92983 550.356 8.67237L549.705 9.43163ZM549.783 9.664V33.136H550.783V9.664H549.783ZM549.783 33.136C549.783 33.2449 549.75 33.3213 549.677 33.3944L550.384 34.1016C550.647 33.8387 550.783 33.5071 550.783 33.136H549.783ZM549.651 33.4226C549.611 33.4696 549.563 33.5 549.455 33.5V34.5C549.827 34.5 550.162 34.3624 550.41 34.0734L549.651 33.4226ZM549.455 33.5H547.727V34.5H549.455V33.5ZM547.727 33.5C547.558 33.5 547.419 33.4371 547.283 33.2256L546.442 33.7664C546.738 34.2269 547.175 34.5 547.727 34.5V33.5ZM547.281 33.2219L535.365 15.0419L534.528 15.5901L546.444 33.7701L547.281 33.2219ZM534.447 15.316V33.172H535.447V15.316H534.447ZM534.447 33.172C534.447 33.2809 534.414 33.3573 534.341 33.4304L535.048 34.1376C535.311 33.8747 535.447 33.5431 535.447 33.172H534.447ZM534.369 33.4044C534.3 33.4639 534.214 33.5 534.083 33.5V34.5C534.431 34.5 534.753 34.3921 535.02 34.1636L534.369 33.4044ZM534.083 33.5H532.355V34.5H534.083V33.5Z" fill="#03DAC6"/>
</svg>
